<svg width="223" height="60" viewBox="0 0 223 60" fill="none" xmlns="http://www.w3.org/2000/svg">
<path d="M70.1385 13.017V27.4354H67.4277V13.017H62.9883V10.7187H74.5583V13.017H70.1385Z" fill="#0094DE"/>
<path d="M88.3084 27.4157L86.4226 23.1138H79.8028L77.8581 27.4157H75.0098L83.1029 10.0312L91.196 27.4157H88.3084ZM80.8046 20.8548H85.4601L83.7511 17.0439C83.6529 16.8082 83.5547 16.5135 83.4368 16.1992C83.3386 15.8849 83.2208 15.5314 83.1225 15.1385C83.0243 15.5117 82.9261 15.8456 82.8279 16.1599C82.7297 16.4742 82.6118 16.7689 82.5136 17.0243L80.8046 20.8548Z" fill="#0094DE"/>
<path d="M95.0859 27.4157V10.699H97.7967V24.9799H103.867V27.4157H95.0859Z" fill="#0094DE"/>
<path d="M108.424 27.4157V10.699H111.135V17.6136L117.146 10.699H120.465L113.845 18.144L121.251 27.4354H117.754L111.135 18.8904V27.4354H108.424V27.4157Z" fill="#0094DE"/>
<path d="M125.258 27.4157V10.699H127.969V16.8671H136.199V10.699H138.91V27.4157H136.199V19.3029H127.988V27.4157H125.258Z" fill="#0094DE"/>
<path d="M162.227 19.0869C162.227 20.2655 162.011 21.4048 161.559 22.4459C161.107 23.5066 160.459 24.4495 159.615 25.2746C158.75 26.0996 157.788 26.7478 156.707 27.18C155.627 27.6122 154.488 27.8479 153.309 27.8479C152.111 27.8479 150.952 27.6318 149.871 27.18C148.771 26.7282 147.809 26.0996 146.984 25.2746C146.139 24.4495 145.491 23.5066 145.039 22.4459C144.607 21.4048 144.371 20.2655 144.371 19.0672C144.371 17.8689 144.587 16.7493 145.039 15.6885C145.471 14.6278 146.119 13.6849 146.984 12.8402C147.828 12.0152 148.811 11.3866 149.891 10.9544C150.971 10.5223 152.111 10.3062 153.329 10.3062C154.527 10.3062 155.666 10.5223 156.747 10.9544C157.827 11.3866 158.789 12.0152 159.634 12.8402C160.479 13.6849 161.127 14.6474 161.579 15.7082C162.011 16.7886 162.227 17.9082 162.227 19.0869ZM159.398 19.0869C159.398 18.2422 159.241 17.4368 158.927 16.6707C158.613 15.9046 158.181 15.2367 157.591 14.6474C157.022 14.0581 156.373 13.6063 155.627 13.292C154.88 12.9777 154.095 12.8206 153.289 12.8206C152.464 12.8206 151.678 12.9777 150.952 13.292C150.205 13.6063 149.557 14.0581 148.968 14.6474C148.398 15.2367 147.946 15.9046 147.652 16.6707C147.337 17.4368 147.2 18.2422 147.2 19.0869C147.2 19.9315 147.357 20.7369 147.652 21.4834C147.946 22.2298 148.398 22.9173 148.968 23.5066C149.537 24.096 150.205 24.5478 150.952 24.8621C151.698 25.1764 152.464 25.3335 153.309 25.3335C154.114 25.3335 154.9 25.1764 155.627 24.8621C156.354 24.5478 157.022 24.096 157.611 23.5066C158.181 22.9173 158.632 22.2298 158.947 21.4834C159.241 20.7369 159.398 19.9315 159.398 19.0869Z" fill="#0094DE"/>
<path d="M181.322 19.1654C181.282 19.0279 181.243 18.6743 181.164 18.085C181.105 17.5939 181.047 17.2011 181.007 16.8671C180.948 17.2403 180.85 17.6332 180.713 18.0064C180.595 18.3797 180.438 18.7725 180.241 19.1654L175.861 28.0639L171.48 18.969C171.303 18.5957 171.146 18.2422 171.009 17.8886C170.871 17.535 170.753 17.2011 170.655 16.8475C170.655 17.2011 170.616 17.5743 170.577 17.9475C170.518 18.3404 170.459 18.7333 170.36 19.1458L168.573 27.3764H166.078L170.026 9.95258L174.957 20.5012C175.036 20.678 175.153 20.953 175.311 21.3262C175.468 21.7191 175.664 22.1905 175.88 22.7602C176.037 22.2887 176.293 21.6798 176.627 20.9333C176.725 20.7369 176.784 20.5797 176.823 20.4815L181.636 9.95258L185.682 27.3764H183.168L181.322 19.1654Z" fill="#0094DE"/>
<path d="M190.199 27.4157V10.699H199.53V12.9973H192.91V17.1814H199.53V19.5583H192.91V24.9603H199.53V27.3961H190.199V27.4157Z" fill="#0094DE"/>
<path d="M222.122 19.0869C222.122 20.2655 221.906 21.4048 221.454 22.4459C221.002 23.5066 220.354 24.4495 219.509 25.2746C218.645 26.0996 217.682 26.7478 216.602 27.18C215.521 27.6122 214.382 27.8479 213.203 27.8479C212.005 27.8479 210.846 27.6318 209.766 27.18C208.666 26.7282 207.703 26.0996 206.878 25.2746C206.034 24.4495 205.385 23.5066 204.934 22.4459C204.501 21.4048 204.266 20.2655 204.266 19.0672C204.266 17.8689 204.482 16.7493 204.934 15.6885C205.366 14.6278 206.014 13.6849 206.878 12.8402C207.723 12.0152 208.705 11.3866 209.785 10.9544C210.866 10.5223 212.005 10.3062 213.223 10.3062C214.421 10.3062 215.561 10.5223 216.641 10.9544C217.721 11.3866 218.684 12.0152 219.529 12.8402C220.373 13.6849 221.022 14.6474 221.473 15.7082C221.906 16.7886 222.122 17.9082 222.122 19.0869ZM219.293 19.0869C219.293 18.2422 219.136 17.4368 218.821 16.6707C218.507 15.9046 218.075 15.2367 217.486 14.6474C216.916 14.0581 216.268 13.6063 215.521 13.292C214.775 12.9777 213.989 12.8206 213.184 12.8206C212.378 12.8206 211.573 12.9777 210.846 13.292C210.1 13.6063 209.452 14.0581 208.862 14.6474C208.293 15.2367 207.841 15.9046 207.546 16.6707C207.251 17.4368 207.094 18.2422 207.094 19.0869C207.094 19.9315 207.251 20.7369 207.546 21.4834C207.841 22.2298 208.293 22.9173 208.862 23.5066C209.432 24.096 210.1 24.5478 210.846 24.8621C211.593 25.1764 212.359 25.3335 213.203 25.3335C214.009 25.3335 214.795 25.1764 215.521 24.8621C216.248 24.5478 216.916 24.096 217.505 23.5066C218.075 22.9173 218.527 22.2298 218.841 21.4834C219.136 20.7369 219.293 19.9315 219.293 19.0869Z" fill="#0094DE"/>
<path d="M65.8965 35.4303H66.8983L68.0966 38.6125C68.1751 38.8286 68.2341 39.0054 68.293 39.1625C68.3519 39.3197 68.3912 39.4768 68.4305 39.6143C68.5287 39.2804 68.6269 38.9661 68.7448 38.6322C68.7644 38.5929 68.7644 38.5732 68.7841 38.5536L70.0413 35.1945L71.377 38.6125C71.436 38.7697 71.4949 38.9465 71.5538 39.1036C71.6128 39.2608 71.6717 39.4375 71.711 39.6143C71.7306 39.4768 71.7699 39.3393 71.8288 39.1822C71.8878 39.025 71.9467 38.8482 72.0253 38.6322L73.2039 35.4303H74.2253L71.7699 41.9716L70.3359 38.3768C70.277 38.2196 70.2181 38.0625 70.1591 37.9054C70.1002 37.7482 70.0609 37.6107 70.0216 37.4928C69.9823 37.6696 69.9234 37.8268 69.8841 37.9643C69.8448 38.1214 69.7859 38.2589 69.727 38.3964L68.3126 41.9716L65.8965 35.4303Z" fill="#263077"/>
<path d="M81.0605 41.7162V35.4303H84.5767V36.2946H82.082V37.8661H84.5767V38.7697H82.082V40.8126H84.5767V41.7359H81.0605V41.7162Z" fill="#263077"/>
<path d="M105.792 36.9625C105.498 36.7071 105.203 36.5303 104.869 36.4125C104.555 36.2946 104.201 36.2357 103.848 36.2357C103.16 36.2357 102.59 36.4517 102.178 36.9035C101.746 37.3357 101.53 37.925 101.53 38.6125C101.53 39.3001 101.746 39.8501 102.158 40.3019C102.571 40.734 103.101 40.9698 103.749 40.9698C104.123 40.9698 104.476 40.9108 104.81 40.7733C105.144 40.6358 105.478 40.4394 105.773 40.184V41.343C105.498 41.5394 105.203 41.6966 104.869 41.7948C104.535 41.893 104.201 41.9323 103.808 41.9323C103.317 41.9323 102.885 41.8537 102.473 41.6966C102.06 41.5394 101.707 41.3037 101.392 41.0091C101.078 40.7144 100.842 40.3608 100.685 39.9483C100.528 39.5358 100.43 39.1036 100.43 38.6518C100.43 38.2 100.508 37.7482 100.685 37.3553C100.842 36.9428 101.098 36.5892 101.392 36.2946C101.707 35.9803 102.06 35.7446 102.473 35.5874C102.885 35.4303 103.317 35.3517 103.789 35.3517C104.162 35.3517 104.516 35.4106 104.85 35.5088C105.183 35.6071 105.517 35.7839 105.832 35.9999L105.792 36.9625Z" fill="#263077"/>
<path d="M117.382 41.7162L116.675 40.0858H114.18L113.453 41.7162H112.373L115.418 35.1749L118.463 41.7162H117.382ZM114.553 39.2411H116.302L115.654 37.8071C115.614 37.7089 115.575 37.6107 115.536 37.4928C115.496 37.375 115.457 37.2375 115.418 37.1C115.378 37.2375 115.339 37.375 115.3 37.4928C115.261 37.6107 115.221 37.7286 115.182 37.8268L114.553 39.2411Z" fill="#263077"/>
<path d="M125.201 41.7162V35.1749L129.208 39.025C129.326 39.1429 129.425 39.2411 129.542 39.3786C129.66 39.4965 129.778 39.634 129.896 39.7911V35.4303H130.839V41.9716L126.753 38.0625C126.635 37.9643 126.537 37.8464 126.439 37.7286C126.34 37.6107 126.242 37.4928 126.144 37.3553V41.7162H125.201Z" fill="#263077"/>
<path d="M152.308 36.9625C152.013 36.7071 151.719 36.5303 151.385 36.4125C151.07 36.2946 150.717 36.2357 150.363 36.2357C149.676 36.2357 149.106 36.4517 148.694 36.9035C148.261 37.3357 148.045 37.925 148.045 38.6125C148.045 39.3001 148.261 39.8501 148.674 40.3019C149.086 40.734 149.617 40.9698 150.265 40.9698C150.638 40.9698 150.992 40.9108 151.326 40.7733C151.66 40.6358 151.994 40.4394 152.288 40.184V41.343C152.013 41.5394 151.719 41.6966 151.385 41.7948C151.07 41.893 150.717 41.9323 150.324 41.9323C149.833 41.9323 149.401 41.8537 148.988 41.6966C148.576 41.5394 148.222 41.3037 147.908 41.0091C147.594 40.7144 147.358 40.3608 147.201 39.9483C147.044 39.5358 146.945 39.1036 146.945 38.6518C146.945 38.2 147.024 37.7482 147.201 37.3553C147.358 36.9428 147.613 36.5892 147.908 36.2946C148.222 35.9803 148.576 35.7446 148.988 35.5874C149.401 35.4303 149.833 35.3517 150.304 35.3517C150.678 35.3517 151.031 35.4106 151.365 35.5088C151.699 35.6071 152.033 35.7839 152.347 35.9999L152.308 36.9625Z" fill="#263077"/>
<path d="M159.715 35.4303H160.717V39.2608C160.717 39.8304 160.854 40.2626 161.11 40.5376C161.365 40.8323 161.758 40.9698 162.288 40.9698C162.799 40.9698 163.192 40.8323 163.467 40.5376C163.722 40.2429 163.86 39.8304 163.86 39.2608V35.4303H164.881V39.3393C164.881 40.184 164.665 40.8323 164.233 41.2448C163.801 41.6769 163.153 41.8734 162.288 41.8734C161.424 41.8734 160.776 41.6573 160.344 41.2448C159.911 40.8323 159.695 40.184 159.695 39.3393V35.4303H159.715Z" fill="#263077"/>
<path d="M173.425 38.9072V41.7162H172.463V35.4303H173.897C174.309 35.4303 174.643 35.4499 174.879 35.5088C175.115 35.5678 175.311 35.6464 175.468 35.7839C175.665 35.941 175.822 36.1374 175.92 36.3732C176.018 36.6089 176.077 36.8839 176.077 37.1589C176.077 37.6696 175.959 38.0625 175.704 38.3375C175.468 38.6322 175.095 38.7893 174.624 38.8483L176.784 41.7162H175.626L173.524 38.9072H173.425ZM173.484 38.1018H173.661C174.211 38.1018 174.565 38.0429 174.742 37.9054C174.918 37.7875 175.017 37.5518 175.017 37.2375C175.017 36.8839 174.918 36.6482 174.722 36.5107C174.525 36.3732 174.172 36.2946 173.661 36.2946H173.484V38.1018Z" fill="#263077"/>
<path d="M183.561 41.7162V35.4303H187.077V36.2946H184.582V37.8661H187.077V38.7697H184.582V40.8126H187.077V41.7359H183.561V41.7162Z" fill="#263077"/>
<path d="M203.244 41.7162V35.4303H204.266V41.7162H203.244Z" fill="#263077"/>
<path d="M213.929 36.2946V41.7162H212.908V36.2946H211.238V35.4303H215.599V36.2946H213.929Z" fill="#263077"/>
<path d="M40.157 0H9.50295C4.27072 0 0.0195312 4.2654 0.0195312 9.49763V40.1517C0.0195312 45.3839 4.27072 49.6493 9.51717 49.6493H24.8442H26.1807V38.9147C33.6025 38.2322 39.4461 31.9763 39.4461 24.3839V22.3934H36.7731V24.3839C36.7731 30.9526 31.4271 36.3128 24.8442 36.3128C18.2612 36.3128 12.9153 30.9668 12.9153 24.3839V22.3934H10.2423V24.3839C10.2423 31.9905 16.0859 38.2464 23.5077 38.9147V46.9763H9.50295C5.74939 46.9763 2.69252 43.9194 2.69252 40.1517V9.49763C2.69252 5.74408 5.74939 2.6872 9.50295 2.6872H40.157C43.9105 2.6872 46.9674 5.74408 46.9674 9.49763V40.1517C46.9674 43.9052 43.9105 46.9763 40.157 46.9763H33.6594V54.7109L27.1191 49.8768L27.1902 53.2464L36.3323 60V49.6351H40.157C45.3892 49.6351 49.6546 45.3697 49.6546 40.1374V9.49763C49.6546 4.2654 45.3892 0 40.157 0Z" fill="#263077"/>
<path d="M39.4318 19.3507C39.4318 15.8815 36.9863 12.981 33.7304 12.2559C33.2896 11.3459 32.3654 10.7203 31.2991 10.7203C29.8062 10.7203 28.5977 11.9289 28.5977 13.4218C28.5977 14.9147 29.8062 16.1232 31.2991 16.1232C32.2232 16.1232 33.0337 15.6682 33.5171 14.9573C35.3939 15.526 36.7588 17.2748 36.7588 19.3365V19.9478H39.4318V19.3507Z" fill="#0094DE"/>
<path d="M21.0763 13.4218C21.0763 11.9289 19.8678 10.7203 18.3749 10.7203C17.2943 10.7203 16.3701 11.3459 15.9436 12.2559C12.6877 12.9668 10.2422 15.8815 10.2422 19.3507V19.962H12.9152V19.3507C12.9152 17.289 14.2801 15.5402 16.1569 14.9715C16.6403 15.6682 17.4507 16.1374 18.3749 16.1374C19.8678 16.1232 21.0763 14.9146 21.0763 13.4218Z" fill="#0094DE"/>
<path d="M18.3464 19.6493C17.0383 23.4029 18.4317 26.3886 20.5075 28.3792C20.5644 27.455 20.6923 26.5877 20.934 25.8199C21.0193 25.564 21.1047 25.3081 21.2184 25.0664L20.934 24.7678C20.5359 24.3413 20.1947 23.8863 19.9246 23.3744C19.7966 23.1185 19.6829 22.8484 19.6118 22.564C19.5407 22.2939 19.4838 21.9953 19.5122 21.7251C19.5691 21.9953 19.6829 22.2512 19.8108 22.4929C19.8677 22.6067 19.953 22.7204 20.0099 22.8484C20.081 22.9621 20.1663 23.0758 20.2374 23.1754C20.5644 23.6019 20.9483 23.9858 21.3464 24.3413L21.5028 24.4834C22.0715 23.4882 22.8961 22.7204 23.9909 22.1517C19.2137 20.9574 18.3464 19.6493 18.3464 19.6493Z" fill="#0094DE"/>
<path d="M32.3095 19.6493C32.3095 19.6493 31.3996 21.0285 26.2669 22.237C20.8782 23.5024 21.12 27.5261 21.4185 33.6398C21.4185 33.6398 21.5038 31.4787 24.6176 31.237C27.7598 30.9811 34.7692 26.6304 32.3095 19.6493ZM31.0583 22.5498C30.9872 22.8341 30.8735 23.0901 30.7455 23.3602C30.4754 23.8721 30.1342 24.3413 29.7361 24.7536L29.4375 25.0664L29.1105 25.3507C28.8972 25.5498 28.6697 25.7204 28.4422 25.891C27.9872 26.2322 27.5038 26.5308 27.0062 26.8152C26.5086 27.0995 26.0536 27.3413 25.5844 27.6398C25.3569 27.782 25.1294 27.9384 24.9162 28.0948C24.7029 28.2654 24.4896 28.4218 24.2763 28.5924C23.4517 29.2891 22.6839 30.0711 22.1436 31.0522C22.2432 30.4977 22.4991 29.9716 22.7835 29.4882C23.082 29.0048 23.4517 28.5498 23.8498 28.1517C24.2479 27.7251 24.7029 27.3839 25.1579 27.0427C25.3996 26.8863 25.6271 26.7157 25.883 26.5735L26.6081 26.1469C27.0915 25.891 27.5465 25.6067 28.0015 25.3081C28.229 25.1517 28.4564 25.0095 28.6555 24.8389L28.9825 24.5972L29.2953 24.3413C29.6934 23.9858 30.0915 23.6019 30.4043 23.1754C30.4896 23.0616 30.5607 22.9621 30.6318 22.8484C30.7029 22.7346 30.774 22.6209 30.8309 22.4929C30.9588 22.2512 31.0726 21.9953 31.1294 21.7251C31.1863 21.9953 31.1436 22.2796 31.0583 22.5498Z" fill="#0094DE"/>
</svg>
