<svg width="161" height="33" viewBox="0 0 161 33" fill="none" xmlns="http://www.w3.org/2000/svg">
<path d="M8.11901 4.01705V18.4354H5.4082V4.01705H0.96875V1.71875H12.5388V4.01705H8.11901Z" fill="white"/>
<path d="M26.2889 18.4158L24.4031 14.1139H17.7833L15.8385 18.4158H12.9902L21.0834 1.03125L29.1765 18.4158H26.2889ZM18.7851 11.8548H23.4406L21.7316 8.044C21.6334 7.80827 21.5352 7.51362 21.4173 7.19933C21.3191 6.88503 21.2012 6.53144 21.103 6.13857C21.0048 6.5118 20.9066 6.84574 20.8084 7.16004C20.7101 7.47433 20.5923 7.76899 20.4941 8.02436L18.7851 11.8548Z" fill="white"/>
<path d="M33.0664 18.4159V1.69922H35.7772V15.9801H41.8471V18.4159H33.0664V18.4159Z" fill="white"/>
<path d="M46.4043 18.4159V1.69922H49.1151V8.61375L55.126 1.69922H58.4457L51.8259 9.14412L59.2315 18.4355H55.7349L49.1151 9.89058V18.4355H46.4043V18.4159Z" fill="white"/>
<path d="M63.2383 18.4159V1.69922H65.9491V7.86729H74.1797V1.69922H76.8905V18.4159H74.1797V10.3031H65.9687V18.4159H63.2383Z" fill="white"/>
<path d="M100.208 10.0868C100.208 11.2654 99.9915 12.4048 99.5397 13.4459C99.0879 14.5066 98.4396 15.4495 97.595 16.2745C96.7307 17.0996 95.7681 17.7478 94.6877 18.18C93.6073 18.6121 92.468 18.8478 91.2894 18.8478C90.0911 18.8478 88.9322 18.6318 87.8518 18.18C86.7517 17.7282 85.7892 17.0996 84.9642 16.2745C84.1195 15.4495 83.4712 14.5066 83.0194 13.4459C82.5873 12.4048 82.3516 11.2654 82.3516 10.0672C82.3516 8.86892 82.5676 7.74924 83.0194 6.68849C83.4516 5.62773 84.0998 4.68484 84.9642 3.84017C85.8088 3.01514 86.791 2.38655 87.8714 1.95439C88.9518 1.52223 90.0911 1.30615 91.309 1.30615C92.5073 1.30615 93.6466 1.52223 94.727 1.95439C95.8074 2.38655 96.7699 3.01514 97.6146 3.84017C98.4593 4.68484 99.1075 5.64738 99.5593 6.70813C99.9915 7.78853 100.208 8.90821 100.208 10.0868ZM97.3789 10.0868C97.3789 9.24215 97.2217 8.43676 96.9074 7.67066C96.5931 6.90456 96.161 6.23668 95.5717 5.64738C95.002 5.05807 94.3538 4.60627 93.6073 4.29197C92.8609 3.97768 92.0751 3.82053 91.2697 3.82053C90.4447 3.82053 89.659 3.97768 88.9322 4.29197C88.1857 4.60627 87.5375 5.05807 86.9482 5.64738C86.3785 6.23668 85.9267 6.90456 85.632 7.67066C85.3177 8.43676 85.1802 9.24215 85.1802 10.0868C85.1802 10.9315 85.3374 11.7369 85.632 12.4833C85.9267 13.2298 86.3785 13.9173 86.9482 14.5066C87.5178 15.0959 88.1857 15.5477 88.9322 15.862C89.6786 16.1763 90.4447 16.3335 91.2894 16.3335C92.0948 16.3335 92.8805 16.1763 93.6073 15.862C94.3341 15.5477 95.002 15.0959 95.5913 14.5066C96.161 13.9173 96.6128 13.2298 96.9271 12.4833C97.2217 11.7369 97.3789 10.9315 97.3789 10.0868Z" fill="white"/>
<path d="M119.302 10.1655C119.263 10.028 119.223 9.67438 119.145 9.08507C119.086 8.59398 119.027 8.20111 118.988 7.86717C118.929 8.2404 118.831 8.63327 118.693 9.0065C118.575 9.37972 118.418 9.77259 118.222 10.1655L113.841 19.064L109.461 9.96903C109.284 9.5958 109.127 9.24222 108.989 8.88863C108.852 8.53505 108.734 8.20111 108.636 7.84753C108.636 8.20111 108.596 8.57434 108.557 8.94757C108.498 9.34044 108.439 9.73331 108.341 10.1458L106.553 18.3765H104.059L108.007 0.952637L112.937 11.5012C113.016 11.678 113.134 11.953 113.291 12.3263C113.448 12.7191 113.645 13.1906 113.861 13.7602C114.018 13.2888 114.273 12.6798 114.607 11.9334C114.705 11.737 114.764 11.5798 114.804 11.4816L119.616 0.952637L123.663 18.3765H121.148L119.302 10.1655Z" fill="white"/>
<path d="M128.18 18.4159V1.69922H137.51V3.99751H130.89V8.18159H137.51V10.5585H130.89V15.9604H137.51V18.3962H128.18V18.4159Z" fill="white"/>
<path d="M160.102 10.0868C160.102 11.2654 159.886 12.4048 159.434 13.4459C158.982 14.5066 158.334 15.4495 157.489 16.2745C156.625 17.0996 155.663 17.7478 154.582 18.18C153.502 18.6121 152.363 18.8478 151.184 18.8478C149.986 18.8478 148.827 18.6318 147.746 18.18C146.646 17.7282 145.684 17.0996 144.859 16.2745C144.014 15.4495 143.366 14.5066 142.914 13.4459C142.482 12.4048 142.246 11.2654 142.246 10.0672C142.246 8.86892 142.462 7.74924 142.914 6.68849C143.346 5.62773 143.994 4.68484 144.859 3.84017C145.703 3.01514 146.686 2.38655 147.766 1.95439C148.846 1.52223 149.986 1.30615 151.204 1.30615C152.402 1.30615 153.541 1.52223 154.622 1.95439C155.702 2.38655 156.664 3.01514 157.509 3.84017C158.354 4.68484 159.002 5.64738 159.454 6.70813C159.886 7.78853 160.102 8.90821 160.102 10.0868ZM157.273 10.0868C157.273 9.24215 157.116 8.43676 156.802 7.67066C156.488 6.90456 156.056 6.23668 155.466 5.64738C154.897 5.05807 154.248 4.60627 153.502 4.29197C152.755 3.97768 151.97 3.82053 151.164 3.82053C150.359 3.82053 149.553 3.97768 148.827 4.29197C148.08 4.60627 147.432 5.05807 146.843 5.64738C146.273 6.23668 145.821 6.90456 145.527 7.67066C145.232 8.43676 145.075 9.24215 145.075 10.0868C145.075 10.9315 145.232 11.7369 145.527 12.4833C145.821 13.2298 146.273 13.9173 146.843 14.5066C147.412 15.0959 148.08 15.5477 148.827 15.862C149.573 16.1763 150.339 16.3335 151.184 16.3335C151.989 16.3335 152.775 16.1763 153.502 15.862C154.229 15.5477 154.897 15.0959 155.486 14.5066C156.056 13.9173 156.507 13.2298 156.822 12.4833C157.116 11.7369 157.273 10.9315 157.273 10.0868Z" fill="white"/>
<path d="M3.87695 26.4301H4.87877L6.07703 29.6123C6.1556 29.8284 6.21453 30.0052 6.27346 30.1623C6.33239 30.3195 6.37168 30.4766 6.41097 30.6141C6.50919 30.2802 6.60741 29.9659 6.72527 29.632C6.74491 29.5927 6.74491 29.573 6.76455 29.5534L8.02174 26.1943L9.3575 29.6123C9.41643 29.7695 9.47536 29.9463 9.53429 30.1034C9.59322 30.2606 9.65215 30.4373 9.69144 30.6141C9.71109 30.4766 9.75037 30.3391 9.8093 30.182C9.86823 30.0248 9.92716 29.848 10.0057 29.632L11.1843 26.4301H12.2058L9.75037 32.9714L8.31639 29.3766C8.25746 29.2194 8.19853 29.0623 8.1396 28.9051C8.08067 28.748 8.04138 28.6105 8.0021 28.4926C7.96281 28.6694 7.90388 28.8266 7.86459 28.9641C7.8253 29.1212 7.76637 29.2587 7.70744 29.3962L6.29311 32.9714L3.87695 26.4301Z" fill="white"/>
<path d="M19.041 32.7161V26.4302H22.5572V27.2945H20.0625V28.866H22.5572V29.7696H20.0625V31.8125H22.5572V32.7358H19.041V32.7161Z" fill="white"/>
<path d="M43.7729 27.9623C43.4782 27.707 43.1835 27.5302 42.8496 27.4123C42.5353 27.2945 42.1817 27.2355 41.8281 27.2355C41.1406 27.2355 40.5709 27.4516 40.1584 27.9034C39.7263 28.3356 39.5102 28.9249 39.5102 29.6124C39.5102 30.2999 39.7263 30.8499 40.1388 31.3018C40.5513 31.7339 41.0817 31.9696 41.7299 31.9696C42.1031 31.9696 42.4567 31.9107 42.7907 31.7732C43.1246 31.6357 43.4586 31.4393 43.7532 31.1839V32.3429C43.4782 32.5393 43.1835 32.6964 42.8496 32.7947C42.5157 32.8929 42.1817 32.9322 41.7888 32.9322C41.2978 32.9322 40.8656 32.8536 40.4531 32.6964C40.0406 32.5393 39.687 32.3036 39.3727 32.0089C39.0584 31.7143 38.8227 31.3607 38.6655 30.9482C38.5084 30.5357 38.4102 30.1035 38.4102 29.6517C38.4102 29.1999 38.4887 28.7481 38.6655 28.3552C38.8227 27.9427 39.078 27.5891 39.3727 27.2945C39.687 26.9802 40.0406 26.7444 40.4531 26.5873C40.8656 26.4301 41.2978 26.3516 41.7692 26.3516C42.1424 26.3516 42.496 26.4105 42.83 26.5087C43.1639 26.6069 43.4979 26.7837 43.8122 26.9998L43.7729 27.9623Z" fill="white"/>
<path d="M55.3626 32.7161L54.6554 31.0857H52.1607L51.4339 32.7161H50.3535L53.3983 26.1748L56.443 32.7161H55.3626ZM52.5339 30.241H54.2822L53.634 28.807C53.5947 28.7088 53.5554 28.6106 53.5161 28.4927C53.4768 28.3749 53.4375 28.2374 53.3983 28.0999C53.359 28.2374 53.3197 28.3749 53.2804 28.4927C53.2411 28.6106 53.2018 28.7285 53.1625 28.8267L52.5339 30.241Z" fill="white"/>
<path d="M63.1816 32.7161V26.1748L67.1889 30.0249C67.3068 30.1428 67.405 30.241 67.5229 30.3785C67.6407 30.4964 67.7586 30.6339 67.8765 30.791V26.4302H68.8194V32.9715L64.7335 29.0624C64.6156 28.9642 64.5174 28.8463 64.4192 28.7285C64.321 28.6106 64.2228 28.4927 64.1245 28.3552V32.7161H63.1816Z" fill="white"/>
<path d="M90.2885 27.9623C89.9938 27.707 89.6991 27.5302 89.3652 27.4123C89.0509 27.2945 88.6973 27.2355 88.3437 27.2355C87.6562 27.2355 87.0866 27.4516 86.674 27.9034C86.2419 28.3356 86.0258 28.9249 86.0258 29.6124C86.0258 30.2999 86.2419 30.8499 86.6544 31.3018C87.0669 31.7339 87.5973 31.9696 88.2455 31.9696C88.6188 31.9696 88.9723 31.9107 89.3063 31.7732C89.6402 31.6357 89.9742 31.4393 90.2688 31.1839V32.3429C89.9938 32.5393 89.6991 32.6964 89.3652 32.7947C89.0509 32.8929 88.6973 32.9322 88.3045 32.9322C87.8134 32.9322 87.3812 32.8536 86.9687 32.6964C86.5562 32.5393 86.2026 32.3036 85.8883 32.0089C85.574 31.7143 85.3383 31.3607 85.1811 30.9482C85.024 30.5357 84.9258 30.1035 84.9258 29.6517C84.9258 29.1999 85.0044 28.7481 85.1811 28.3552C85.3383 27.9427 85.5937 27.5891 85.8883 27.2945C86.2026 26.9802 86.5562 26.7444 86.9687 26.5873C87.3812 26.4301 87.8134 26.3516 88.2848 26.3516C88.658 26.3516 89.0116 26.4105 89.3456 26.5087C89.6795 26.6069 90.0134 26.7837 90.3277 26.9998L90.2885 27.9623Z" fill="white"/>
<path d="M97.6954 26.4302H98.6972V30.2607C98.6972 30.8303 98.8348 31.2625 99.0901 31.5375C99.3455 31.8322 99.7384 31.9697 100.269 31.9697C100.779 31.9697 101.172 31.8322 101.447 31.5375C101.703 31.2428 101.84 30.8303 101.84 30.2607V26.4302H102.862V30.3392C102.862 31.1839 102.646 31.8322 102.213 32.2447C101.781 32.6768 101.133 32.8733 100.269 32.8733C99.4044 32.8733 98.7562 32.6572 98.324 32.2447C97.8919 31.8322 97.6758 31.1839 97.6758 30.3392V26.4302H97.6954Z" fill="white"/>
<path d="M111.406 29.9071V32.7161H110.443V26.4302H111.877C112.29 26.4302 112.624 26.4498 112.86 26.5087C113.095 26.5677 113.292 26.6463 113.449 26.7838C113.645 26.9409 113.802 27.1373 113.901 27.3731C113.999 27.6088 114.058 27.8838 114.058 28.1588C114.058 28.6695 113.94 29.0624 113.685 29.3374C113.449 29.6321 113.076 29.7892 112.604 29.8482L114.765 32.7161H113.606L111.504 29.9071H111.406ZM111.465 29.1017H111.642C112.192 29.1017 112.545 29.0428 112.722 28.9053C112.899 28.7874 112.997 28.5517 112.997 28.2374C112.997 27.8838 112.899 27.6481 112.702 27.5106C112.506 27.3731 112.152 27.2945 111.642 27.2945H111.465V29.1017Z" fill="white"/>
<path d="M121.541 32.7161V26.4302H125.057V27.2945H122.562V28.866H125.057V29.7696H122.562V31.8125H125.057V32.7358H121.541V32.7161Z" fill="white"/>
<path d="M141.225 32.7161V26.4302H142.246V32.7161H141.225Z" fill="white"/>
<path d="M151.91 27.2945V32.7161H150.888V27.2945H149.219V26.4302H153.58V27.2945H151.91Z" fill="white"/>
</svg>
