<svg width="50" height="50" viewBox="0 0 50 50" fill="none" xmlns="http://www.w3.org/2000/svg">
<path d="M48.558 48.3233H42.8596V46.6054C42.8596 42.6715 41.8106 39.6353 39.7416 37.581C37.1049 34.9632 33.7928 34.9571 33.6599 34.9571H29.4603V32.2814C32.143 31.1697 33.8392 29.319 34.8727 27.7143C36.4861 25.2093 36.8499 22.7985 36.8646 22.6971C36.8704 22.6573 36.8733 22.617 36.8733 22.5768V22.3973C37.4622 22.2521 37.9744 21.9482 38.3812 21.4979C39.5681 20.1837 39.4993 18.1102 39.4145 17.2798C39.35 16.6478 39.064 16.1174 38.5875 15.7459C38.0662 15.3396 37.4081 15.1977 36.8733 15.1583V13.5529V7.99195C36.8733 5.35502 35.7826 3.59211 33.5389 2.60262C33.1412 2.42723 32.9473 2.18154 32.9098 1.80573C32.8752 1.45864 32.9883 1.14275 32.9882 1.14275C33.1326 0.772079 32.9967 0.350997 32.663 0.1347C32.3292 -0.08171 31.8893 -0.0335321 31.61 0.249611C30.4126 1.46412 29.2166 1.48625 26.6246 1.42086C24.9359 1.37805 22.8336 1.32495 20.065 1.721C16.2476 2.26705 14.5543 4.62654 13.8059 6.50973C13.0584 8.39046 13.1024 10.1479 13.1131 10.3972V15.1577C12.5771 15.1965 11.9159 15.3379 11.3926 15.7459C10.916 16.1174 10.63 16.6477 10.5657 17.2799C10.4809 18.1103 10.4121 20.1838 11.599 21.4979C12.0103 21.9533 12.5297 22.2584 13.1268 22.4016V22.5768C13.1268 22.617 13.1297 22.6573 13.1355 22.6971C13.1502 22.7985 13.5141 25.2093 15.1274 27.7143C16.1609 29.3189 17.8571 31.1697 20.5398 32.2814V34.9571H16.346C16.2023 34.9562 12.8954 34.9628 10.2583 37.581C8.18929 39.6353 7.14022 42.6716 7.14022 46.6054V48.3233H1.44237C0.979255 48.3233 0.604004 48.6986 0.604004 49.1616C0.604004 49.6246 0.979255 50 1.44237 50H48.5581C49.0212 50 49.3964 49.6246 49.3964 49.1616C49.3963 48.6986 49.0211 48.3233 48.558 48.3233ZM41.183 46.6054V48.3233H30.1185V36.6338H33.5141V39.8823C32.7928 40.1436 32.2006 40.6937 31.8068 41.4837C31.4504 42.1982 31.3666 42.8741 31.3582 42.9488C31.3547 42.9799 31.3529 43.0111 31.3529 43.0424V45.3247C31.3529 45.7877 31.7283 46.1631 32.1913 46.1631C32.6544 46.1631 33.0297 45.7877 33.0297 45.3247V43.0983C33.0664 42.8557 33.3158 41.5229 34.3525 41.3958C35.388 41.5227 35.6378 42.852 35.6753 43.0986V45.3247C35.6753 45.7877 36.0506 46.1631 36.5137 46.1631C36.9768 46.1631 37.352 45.7877 37.352 45.3247V43.0424C37.352 43.0111 37.3503 42.9799 37.3468 42.9488C37.3384 42.8741 37.2546 42.1981 36.8982 41.4837C36.5044 40.6937 35.9122 40.1436 35.1909 39.8823V36.8683C36.1598 37.1235 37.438 37.6565 38.5604 38.7708C40.3006 40.4988 41.183 43.1347 41.183 46.6054ZM24.9996 40.247C26.3841 40.247 27.6232 39.6128 28.4418 38.6196V48.3233H21.5027V38.5501C22.3202 39.5826 23.5834 40.247 24.9996 40.247ZM37.7466 17.4499C37.8462 18.4269 37.7385 19.708 37.137 20.374C37.0564 20.4632 36.9683 20.5368 36.8734 20.5985V16.8431C37.1333 16.873 37.3933 16.9399 37.5588 17.0699C37.6389 17.1329 37.7238 17.2273 37.7466 17.4499ZM15.3641 7.12911C16.2146 4.98905 17.8762 3.72804 20.3026 3.38095C22.9318 3.00481 24.956 3.05601 26.5823 3.09725C28.4779 3.14521 29.989 3.18344 31.3515 2.50257C31.5514 3.1489 32.008 3.76012 32.8624 4.13694C34.4986 4.85849 35.1967 6.0114 35.1967 7.99207V12.678C33.7222 12.5486 32.6256 12.0651 31.9335 11.2327C30.6847 9.73094 31.0797 7.50626 31.0834 7.4867C31.1565 7.10731 30.9608 6.72714 30.6096 6.56607C30.2585 6.40499 29.8427 6.50503 29.6028 6.80796C28.0844 8.72681 25.9172 9.45507 23.1621 8.9715C20.9921 8.59088 19.2603 7.57724 19.2438 7.56763C19.021 7.43506 18.7493 7.41315 18.5081 7.50805C18.2669 7.60307 18.0831 7.80438 18.0104 8.05332C17.2729 10.5815 15.7643 11.5831 14.79 11.9755V10.3776C14.79 10.3618 14.7896 10.3461 14.7887 10.3304C14.7877 10.3151 14.7095 8.77622 15.3641 7.12911ZM12.8434 20.374C12.2419 19.708 12.1342 18.4269 12.2338 17.45C12.2566 17.2273 12.3415 17.1328 12.4217 17.0699C12.5914 16.9365 12.8605 16.8693 13.127 16.8406V20.6109C13.0242 20.547 12.9295 20.4694 12.8434 20.374ZM16.5706 26.858C15.2588 24.8447 14.864 22.8516 14.8035 22.5082V13.7383C15.9516 13.4134 18.099 12.4258 19.2909 9.47496C20.0913 9.8482 21.3565 10.3507 22.822 10.614C25.4012 11.0775 27.6403 10.6321 29.4065 9.32361C29.5281 10.2574 29.8555 11.3497 30.6332 12.2914C31.6476 13.5197 33.1804 14.2143 35.1966 14.3615V16.266V22.5079C35.1353 22.8552 34.7402 24.8465 33.4295 26.8579C31.5506 29.7417 28.7407 31.3275 25.0778 31.5717H24.9221C21.2595 31.3276 18.4495 29.7418 16.5706 26.858ZM24.8405 33.2468C24.8586 33.2479 24.8766 33.2486 24.8948 33.2486H25.1055C25.1236 33.2486 25.1416 33.248 25.1597 33.2468C26.1098 33.1852 26.9816 33.042 27.7835 32.8368V35.7658C27.7833 35.7731 27.7824 35.7801 27.7824 35.7875C27.7824 37.3219 26.534 38.5704 24.9995 38.5704C23.4651 38.5704 22.2167 37.3219 22.2167 35.7875V32.8368C23.0186 33.042 23.8904 33.1852 24.8405 33.2468ZM16.0203 41.6177C16.8319 41.6177 17.4921 42.2779 17.4921 43.0895C17.4921 43.9011 16.8319 44.5614 16.0203 44.5614C15.2086 44.5614 14.5484 43.9012 14.5484 43.0895C14.5484 42.278 15.2086 41.6177 16.0203 41.6177ZM8.81717 46.6054C8.81717 39.0401 13.0661 37.214 15.1818 36.7735V40.0551C13.8516 40.4232 12.8716 41.6436 12.8716 43.0894C12.8716 44.8255 14.2841 46.238 16.0202 46.238C17.7563 46.238 19.1687 44.8256 19.1687 43.0894C19.1687 41.6436 18.1887 40.4231 16.8585 40.0551V36.6338H19.8259V48.3233H8.81717V46.6054Z" fill="#333333"/>
<path d="M19.049 16.608C19.6017 16.608 20.0497 16.16 20.0497 15.6073C20.0497 15.0547 19.6017 14.6066 19.049 14.6066C18.4964 14.6066 18.0483 15.0547 18.0483 15.6073C18.0483 16.16 18.4964 16.608 19.049 16.608Z" fill="#333333"/>
<path d="M30.9512 16.608C31.5038 16.608 31.9518 16.16 31.9518 15.6074C31.9518 15.0548 31.5038 14.6069 30.9512 14.6069C30.3986 14.6069 29.9507 15.0548 29.9507 15.6074C29.9507 16.16 30.3986 16.608 30.9512 16.608Z" fill="#333333"/>
<path d="M30.1975 25.9741C30.4882 25.6136 30.4316 25.0859 30.0711 24.7952C29.7106 24.5044 29.1828 24.5612 28.8923 24.9214C28.8833 24.9326 27.8763 26.0324 25.2067 26.0324C22.4335 26.0324 21.0816 24.8816 21.0156 24.8238C20.6734 24.5166 20.1466 24.5421 19.8361 24.8829C19.5241 25.225 19.5486 25.7553 19.8907 26.0672C19.9642 26.1343 21.7314 27.7092 25.2067 27.7092C28.6972 27.7092 30.0541 26.1516 30.1975 25.9741Z" fill="#333333"/>
<path d="M24.784 21.5013H25.2163C26.3257 21.5013 27.2284 20.5987 27.2284 19.4893C27.2284 19.0263 26.8531 18.6509 26.39 18.6509C25.9269 18.6509 25.5516 19.0263 25.5516 19.4893C25.5516 19.6742 25.4012 19.8246 25.2163 19.8246H24.784C24.5992 19.8246 24.4487 19.6742 24.4487 19.4893C24.4487 19.0263 24.0734 18.6509 23.6103 18.6509C23.1472 18.6509 22.772 19.0263 22.772 19.4893C22.772 20.5988 23.6746 21.5013 24.784 21.5013Z" fill="#333333"/>
<path d="M16.0201 43.6111C16.3082 43.6111 16.5417 43.3776 16.5417 43.0895C16.5417 42.8015 16.3082 42.568 16.0201 42.568C15.7321 42.568 15.4985 42.8015 15.4985 43.0895C15.4985 43.3776 15.7321 43.6111 16.0201 43.6111Z" fill="#333333"/>
</svg>
