<?xml version="1.0" encoding="utf-8"?>
<!-- Generator: Adobe Illustrator 24.0.1, SVG Export Plug-In . SVG Version: 6.00 Build 0)  -->
<svg version="1.1" id="Layer_1" xmlns="http://www.w3.org/2000/svg" xmlns:xlink="http://www.w3.org/1999/xlink" x="0px" y="0px"
	 viewBox="0 0 223 60" style="enable-background:new 0 0 223 60;" xml:space="preserve">
<style type="text/css">
	.st0{fill:#FFFFFF;stroke:#FFFFFF;stroke-miterlimit:10;}
</style>
<path class="st0" d="M70.1,13v14.4h-2.7V13H63v-2.3h11.6V13H70.1z"/>
<path class="st0" d="M88.3,27.4l-1.9-4.3h-6.6l-1.9,4.3H75L83.1,10l8.1,17.4H88.3z M80.8,20.9h4.7L83.7,17c-0.1-0.2-0.2-0.5-0.3-0.8
	c-0.1-0.3-0.2-0.7-0.3-1.1c-0.1,0.4-0.2,0.7-0.3,1c-0.1,0.3-0.2,0.6-0.3,0.9L80.8,20.9z"/>
<path class="st0" d="M95.1,27.4V10.7h2.7V25h6.1v2.4H95.1z"/>
<path class="st0" d="M108.4,27.4V10.7h2.7v6.9l6-6.9h3.3l-6.6,7.4l7.4,9.3h-3.5l-6.6-8.5v8.5L108.4,27.4L108.4,27.4z"/>
<path class="st0" d="M125.2,27.4V10.7h2.7v6.2h8.2v-6.2h2.7v16.7h-2.7v-8.1H128v8.1H125.2z"/>
<path class="st0" d="M162.2,19.1c0,1.2-0.2,2.3-0.7,3.4c-0.5,1.1-1.1,2-1.9,2.8c-0.9,0.8-1.8,1.5-2.9,1.9c-1.1,0.4-2.2,0.7-3.4,0.7
	c-1.2,0-2.4-0.2-3.4-0.7c-1.1-0.5-2.1-1.1-2.9-1.9c-0.8-0.8-1.5-1.8-1.9-2.8c-0.4-1-0.7-2.2-0.7-3.4c0-1.2,0.2-2.3,0.7-3.4
	c0.4-1.1,1.1-2,1.9-2.8c0.8-0.8,1.8-1.5,2.9-1.9c1.1-0.4,2.2-0.6,3.4-0.6c1.2,0,2.3,0.2,3.4,0.6c1.1,0.4,2,1.1,2.9,1.9
	c0.8,0.8,1.5,1.8,1.9,2.9C162,16.8,162.2,17.9,162.2,19.1z M159.4,19.1c0-0.8-0.2-1.6-0.5-2.4c-0.3-0.8-0.7-1.4-1.3-2
	c-0.6-0.6-1.2-1-2-1.4c-0.7-0.3-1.5-0.5-2.3-0.5c-0.8,0-1.6,0.2-2.3,0.5c-0.7,0.3-1.4,0.8-2,1.4c-0.6,0.6-1,1.3-1.3,2
	c-0.3,0.8-0.5,1.6-0.5,2.4s0.2,1.7,0.5,2.4c0.3,0.7,0.7,1.4,1.3,2c0.6,0.6,1.2,1,2,1.4c0.7,0.3,1.5,0.5,2.4,0.5
	c0.8,0,1.6-0.2,2.3-0.5c0.7-0.3,1.4-0.8,2-1.4c0.6-0.6,1-1.3,1.3-2C159.2,20.7,159.4,19.9,159.4,19.1z"/>
<path class="st0" d="M181.3,19.2c0-0.1-0.1-0.5-0.2-1.1c-0.1-0.5-0.1-0.9-0.2-1.2c-0.1,0.4-0.2,0.8-0.3,1.1
	c-0.1,0.4-0.3,0.8-0.5,1.2l-4.4,8.9l-4.4-9.1c-0.2-0.4-0.3-0.7-0.5-1.1c-0.1-0.4-0.3-0.7-0.4-1c0,0.4,0,0.7-0.1,1.1
	c-0.1,0.4-0.1,0.8-0.2,1.2l-1.8,8.2h-2.5L170,10l4.9,10.5c0.1,0.2,0.2,0.5,0.4,0.8c0.2,0.4,0.4,0.9,0.6,1.4c0.2-0.5,0.4-1.1,0.7-1.8
	c0.1-0.2,0.2-0.4,0.2-0.5l4.8-10.5l4,17.4h-2.5L181.3,19.2z"/>
<path class="st0" d="M190.2,27.4V10.7h9.3V13h-6.6v4.2h6.6v2.4h-6.6V25h6.6v2.4L190.2,27.4L190.2,27.4z"/>
<path class="st0" d="M222.1,19.1c0,1.2-0.2,2.3-0.7,3.4c-0.5,1.1-1.1,2-1.9,2.8c-0.9,0.8-1.8,1.5-2.9,1.9c-1.1,0.4-2.2,0.7-3.4,0.7
	c-1.2,0-2.4-0.2-3.4-0.7c-1.1-0.5-2.1-1.1-2.9-1.9c-0.8-0.8-1.5-1.8-1.9-2.8c-0.4-1-0.7-2.2-0.7-3.4c0-1.2,0.2-2.3,0.7-3.4
	c0.4-1.1,1.1-2,1.9-2.8c0.8-0.8,1.8-1.5,2.9-1.9c1.1-0.4,2.2-0.6,3.4-0.6c1.2,0,2.3,0.2,3.4,0.6c1.1,0.4,2,1.1,2.9,1.9
	c0.8,0.8,1.5,1.8,1.9,2.9C221.9,16.8,222.1,17.9,222.1,19.1z M219.3,19.1c0-0.8-0.2-1.6-0.5-2.4s-0.7-1.4-1.3-2
	c-0.6-0.6-1.2-1-2-1.4c-0.7-0.3-1.5-0.5-2.3-0.5c-0.8,0-1.6,0.2-2.3,0.5c-0.7,0.3-1.4,0.8-2,1.4c-0.6,0.6-1,1.3-1.3,2
	c-0.3,0.8-0.5,1.6-0.5,2.4s0.2,1.7,0.5,2.4c0.3,0.7,0.7,1.4,1.3,2c0.6,0.6,1.2,1,2,1.4c0.7,0.3,1.5,0.5,2.4,0.5
	c0.8,0,1.6-0.2,2.3-0.5c0.7-0.3,1.4-0.8,2-1.4c0.6-0.6,1-1.3,1.3-2C219.1,20.7,219.3,19.9,219.3,19.1z"/>
<path class="st0" d="M65.9,35.4h1l1.2,3.2c0.1,0.2,0.1,0.4,0.2,0.5c0.1,0.2,0.1,0.3,0.1,0.5c0.1-0.3,0.2-0.6,0.3-1c0,0,0-0.1,0-0.1
	l1.3-3.4l1.3,3.4c0.1,0.2,0.1,0.3,0.2,0.5c0.1,0.2,0.1,0.3,0.2,0.5c0-0.1,0.1-0.3,0.1-0.4c0.1-0.2,0.1-0.3,0.2-0.5l1.2-3.2h1
	L71.8,42l-1.4-3.6c-0.1-0.2-0.1-0.3-0.2-0.5c-0.1-0.2-0.1-0.3-0.1-0.4c0,0.2-0.1,0.3-0.1,0.5c0,0.2-0.1,0.3-0.2,0.4L68.3,42
	L65.9,35.4z"/>
<path class="st0" d="M81,41.7v-6.3h3.5v0.9h-2.5v1.6h2.5v0.9h-2.5v2h2.5v0.9L81,41.7L81,41.7z"/>
<path class="st0" d="M105.8,37c-0.3-0.3-0.6-0.4-0.9-0.5c-0.3-0.1-0.7-0.2-1-0.2c-0.7,0-1.3,0.2-1.7,0.7c-0.4,0.4-0.6,1-0.6,1.7
	s0.2,1.2,0.6,1.7c0.4,0.4,0.9,0.7,1.6,0.7c0.4,0,0.7-0.1,1.1-0.2s0.7-0.3,1-0.6v1.2c-0.3,0.2-0.6,0.4-0.9,0.5
	c-0.3,0.1-0.7,0.1-1.1,0.1c-0.5,0-0.9-0.1-1.3-0.2c-0.4-0.2-0.8-0.4-1.1-0.7c-0.3-0.3-0.6-0.6-0.7-1.1c-0.2-0.4-0.3-0.8-0.3-1.3
	c0-0.5,0.1-0.9,0.3-1.3c0.2-0.4,0.4-0.8,0.7-1.1c0.3-0.3,0.7-0.6,1.1-0.7c0.4-0.2,0.8-0.2,1.3-0.2c0.4,0,0.7,0.1,1.1,0.2
	c0.3,0.1,0.7,0.3,1,0.5L105.8,37z"/>
<path class="st0" d="M117.4,41.7l-0.7-1.6h-2.5l-0.7,1.6h-1.1l3-6.5l3,6.5H117.4z M114.5,39.2h1.7l-0.6-1.4c0-0.1-0.1-0.2-0.1-0.3
	c0-0.1-0.1-0.3-0.1-0.4c0,0.1-0.1,0.3-0.1,0.4c0,0.1-0.1,0.2-0.1,0.3L114.5,39.2z"/>
<path class="st0" d="M125.2,41.7v-6.5l4,3.9c0.1,0.1,0.2,0.2,0.3,0.4c0.1,0.1,0.2,0.3,0.4,0.4v-4.4h0.9V42l-4.1-3.9
	c-0.1-0.1-0.2-0.2-0.3-0.3c-0.1-0.1-0.2-0.2-0.3-0.4v4.4H125.2z"/>
<path class="st0" d="M152.3,37c-0.3-0.3-0.6-0.4-0.9-0.5c-0.3-0.1-0.7-0.2-1-0.2c-0.7,0-1.3,0.2-1.7,0.7c-0.4,0.4-0.6,1-0.6,1.7
	s0.2,1.2,0.6,1.7c0.4,0.4,0.9,0.7,1.6,0.7c0.4,0,0.7-0.1,1.1-0.2s0.7-0.3,1-0.6v1.2c-0.3,0.2-0.6,0.4-0.9,0.5
	c-0.3,0.1-0.7,0.1-1.1,0.1c-0.5,0-0.9-0.1-1.3-0.2c-0.4-0.2-0.8-0.4-1.1-0.7c-0.3-0.3-0.6-0.6-0.7-1.1s-0.3-0.8-0.3-1.3
	c0-0.5,0.1-0.9,0.3-1.3c0.2-0.4,0.4-0.8,0.7-1.1c0.3-0.3,0.7-0.6,1.1-0.7c0.4-0.2,0.8-0.2,1.3-0.2c0.4,0,0.7,0.1,1.1,0.2
	c0.3,0.1,0.7,0.3,1,0.5L152.3,37z"/>
<path class="st0" d="M159.7,35.4h1v3.8c0,0.6,0.1,1,0.4,1.3c0.3,0.3,0.6,0.4,1.2,0.4c0.5,0,0.9-0.1,1.2-0.4c0.3-0.3,0.4-0.7,0.4-1.3
	v-3.8h1v3.9c0,0.8-0.2,1.5-0.6,1.9c-0.4,0.4-1.1,0.6-1.9,0.6c-0.9,0-1.5-0.2-1.9-0.6c-0.4-0.4-0.6-1.1-0.6-1.9L159.7,35.4
	L159.7,35.4z"/>
<path class="st0" d="M173.4,38.9v2.8h-1v-6.3h1.4c0.4,0,0.7,0,1,0.1c0.2,0.1,0.4,0.1,0.6,0.3c0.2,0.2,0.4,0.4,0.5,0.6
	c0.1,0.2,0.2,0.5,0.2,0.8c0,0.5-0.1,0.9-0.4,1.2c-0.2,0.3-0.6,0.5-1.1,0.5l2.2,2.9h-1.2L173.4,38.9L173.4,38.9z M173.5,38.1h0.2
	c0.6,0,0.9-0.1,1.1-0.2c0.2-0.1,0.3-0.4,0.3-0.7c0-0.4-0.1-0.6-0.3-0.7c-0.2-0.1-0.6-0.2-1.1-0.2h-0.2V38.1z"/>
<path class="st0" d="M183.5,41.7v-6.3h3.5v0.9h-2.5v1.6h2.5v0.9h-2.5v2h2.5v0.9L183.5,41.7L183.5,41.7z"/>
<path class="st0" d="M203.2,41.7v-6.3h1v6.3H203.2z"/>
<path class="st0" d="M213.9,36.3v5.4h-1v-5.4h-1.7v-0.9h4.4v0.9H213.9z"/>
<path class="st0" d="M40.1,0H9.5C4.3,0,0,4.3,0,9.5v30.7c0,5.2,4.3,9.5,9.5,9.5h15.3h1.3V38.9c7.4-0.7,13.3-6.9,13.3-14.5v-2h-2.7v2
	c0,6.6-5.3,11.9-11.9,11.9c-6.6,0-11.9-5.3-11.9-11.9v-2h-2.7v2c0,7.6,5.8,13.9,13.3,14.5V47h-14c-3.8,0-6.8-3.1-6.8-6.8V9.5
	c0-3.8,3.1-6.8,6.8-6.8h30.7c3.8,0,6.8,3.1,6.8,6.8v30.7c0,3.8-3.1,6.8-6.8,6.8h-6.5v7.7l-6.5-4.8l0.1,3.4l9.1,6.8V49.6h3.8
	c5.2,0,9.5-4.3,9.5-9.5V9.5C49.6,4.3,45.4,0,40.1,0z"/>
<path class="st0" d="M39.4,19.4c0-3.5-2.4-6.4-5.7-7.1c-0.4-0.9-1.4-1.5-2.4-1.5c-1.5,0-2.7,1.2-2.7,2.7s1.2,2.7,2.7,2.7
	c0.9,0,1.7-0.5,2.2-1.2c1.9,0.6,3.2,2.3,3.2,4.4v0.6h2.7V19.4z"/>
<path class="st0" d="M21.1,13.4c0-1.5-1.2-2.7-2.7-2.7c-1.1,0-2,0.6-2.4,1.5c-3.3,0.7-5.7,3.6-5.7,7.1V20h2.7v-0.6
	c0-2.1,1.4-3.8,3.2-4.4c0.5,0.7,1.3,1.2,2.2,1.2C19.8,16.1,21.1,14.9,21.1,13.4z"/>
<path class="st0" d="M18.3,19.6c-1.3,3.8,0.1,6.7,2.2,8.7c0.1-0.9,0.2-1.8,0.4-2.6c0.1-0.3,0.2-0.5,0.3-0.8l-0.3-0.3
	c-0.4-0.4-0.7-0.9-1-1.4c-0.1-0.3-0.2-0.5-0.3-0.8c-0.1-0.3-0.1-0.6-0.1-0.8c0.1,0.3,0.2,0.5,0.3,0.8c0.1,0.1,0.1,0.2,0.2,0.4
	c0.1,0.1,0.2,0.2,0.2,0.3c0.3,0.4,0.7,0.8,1.1,1.2l0.2,0.1c0.6-1,1.4-1.8,2.5-2.3C19.2,21,18.3,19.6,18.3,19.6z"/>
<path class="st0" d="M32.3,19.6c0,0-0.9,1.4-6,2.6c-5.4,1.3-5.1,5.3-4.8,11.4c0,0,0.1-2.2,3.2-2.4C27.7,31,34.7,26.6,32.3,19.6z
	 M31,22.5c-0.1,0.3-0.2,0.5-0.3,0.8c-0.3,0.5-0.6,1-1,1.4l-0.3,0.3l-0.3,0.3c-0.2,0.2-0.4,0.4-0.7,0.5c-0.5,0.3-0.9,0.6-1.4,0.9
	c-0.5,0.3-1,0.5-1.4,0.8c-0.2,0.1-0.5,0.3-0.7,0.5c-0.2,0.2-0.4,0.3-0.6,0.5c-0.8,0.7-1.6,1.5-2.1,2.5c0.1-0.6,0.4-1.1,0.6-1.6
	c0.3-0.5,0.7-0.9,1.1-1.3c0.4-0.4,0.9-0.8,1.3-1.1c0.2-0.2,0.5-0.3,0.7-0.5l0.7-0.4c0.5-0.3,0.9-0.5,1.4-0.8
	c0.2-0.2,0.5-0.3,0.7-0.5l0.3-0.2l0.3-0.3c0.4-0.4,0.8-0.7,1.1-1.2c0.1-0.1,0.2-0.2,0.2-0.3c0.1-0.1,0.1-0.2,0.2-0.4
	c0.1-0.2,0.2-0.5,0.3-0.8C31.2,22,31.1,22.3,31,22.5z"/>
</svg>
