<svg width="25" height="24" viewBox="0 0 25 24" fill="none" xmlns="http://www.w3.org/2000/svg">
<path fill-rule="evenodd" clip-rule="evenodd" d="M4.95264 12C4.95264 7.99594 8.33381 4.75 12.5047 4.75C16.6756 4.75 20.0568 7.99594 20.0568 12C20.0568 12.0337 20.0592 12.0668 20.0636 12.0993C20.0602 12.1307 20.0589 12.1626 20.0597 12.1949C20.0661 12.4495 20.0322 12.8444 19.9451 13.2219C19.8502 13.6331 19.7266 13.8694 19.6543 13.9423C19.3398 14.2591 18.9071 14.4429 18.4514 14.4535C17.9957 14.464 17.5543 14.3003 17.2243 13.9984C17.0085 13.801 16.9467 13.5113 16.9298 12.8381L16.8095 8.04002C16.7992 7.62592 16.441 7.29831 16.0097 7.30828C15.5783 7.31825 15.2371 7.66201 15.2475 8.07611L15.2648 8.76875C14.5136 8.17672 13.5524 7.82135 12.5047 7.82135C10.1008 7.82135 8.15202 9.69216 8.15202 11.9999C8.15202 14.3077 10.1008 16.1785 12.5047 16.1785C13.8322 16.1785 15.0209 15.608 15.8193 14.7084C15.9088 14.8392 16.0166 14.9655 16.1463 15.0843C16.7763 15.6606 17.6191 15.9731 18.4889 15.953C19.3589 15.9329 20.185 15.5819 20.7854 14.9771C21.1705 14.5892 21.3654 14.0022 21.4706 13.5463C21.5835 13.0566 21.6313 12.5406 21.6218 12.1588C21.621 12.1313 21.6188 12.1042 21.6152 12.0775C21.6179 12.052 21.6193 12.0262 21.6193 12C21.6193 7.16751 17.5385 3.25 12.5047 3.25C7.47088 3.25 3.39014 7.16751 3.39014 12C3.39014 16.8325 7.47088 20.75 12.5047 20.75C14.6329 20.75 16.5926 20.0489 18.1439 18.8747C18.4827 18.6182 18.5408 18.1466 18.2736 17.8213C18.0066 17.4961 17.5153 17.4403 17.1764 17.6968C15.8909 18.6698 14.2695 19.25 12.5047 19.25C8.33381 19.25 4.95264 16.0041 4.95264 12ZM12.5047 9.32135C10.9637 9.32135 9.71452 10.5206 9.71452 11.9999C9.71452 13.4793 10.9637 14.6785 12.5047 14.6785C14.0457 14.6785 15.2949 13.4793 15.2949 11.9999C15.2949 10.5206 14.0457 9.32135 12.5047 9.32135Z" fill="#808080"/>
</svg>
