<svg width="361" height="357" viewBox="0 0 361 357" fill="none" xmlns="http://www.w3.org/2000/svg">
<g filter="url(#filter0_d_91_2385)">
<ellipse cx="180.5" cy="293.5" rx="176.5" ry="55.5" fill="url(#paint0_linear_91_2385)" fill-opacity="0.7"/>
<path d="M72.9487 15.2863H51.2639V22.1877H72.9487V15.2863Z" fill="#EBEBEB"/>
<path d="M222.196 97.0176H200.511V103.919H222.196V97.0176Z" fill="#EBEBEB"/>
<path d="M60.8544 6.58396C57.2525 6.64564 48.0198 6.79982 44.5414 6.843H39.1695L39.4532 6.55929V13.4607L39.1449 13.1523C42.7467 13.1523 51.93 13.2017 55.4085 13.251L60.8297 13.3188L60.6817 13.4607L60.8297 6.55929L60.8544 6.58396ZM60.8544 6.58396L60.9962 13.4854V13.6334H60.8482C58.1407 13.6704 52.7071 13.7321 50.0058 13.7506L39.1634 13.7937H38.855V13.4854V6.58396V6.30643H39.1325H44.6031C48.0568 6.34343 57.2464 6.49762 60.8173 6.55929L60.8544 6.58396Z" fill="#EBEBEB"/>
<path d="M122.214 155.263C118.613 155.325 109.38 155.479 105.901 155.516H100.53L100.813 155.239V162.14L100.505 161.832C104.107 161.832 113.29 161.875 116.769 161.924L122.19 161.992L122.042 162.14L122.19 155.239L122.214 155.263ZM122.214 155.263L122.362 162.165V162.307H122.214C119.507 162.307 114.08 162.405 111.372 162.424L100.53 162.467H100.221V162.158V155.257V154.973H100.499L105.969 155.004C109.423 155.041 118.619 155.195 122.184 155.257L122.214 155.263Z" fill="#EBEBEB"/>
<path d="M110.12 146.549C106.518 146.61 97.2856 146.764 93.8072 146.801H88.4353L88.719 146.524V153.425L88.4107 153.117C92.0125 153.117 101.196 153.16 104.674 153.209L110.095 153.277L109.947 153.425L110.095 146.524L110.12 146.549ZM110.12 146.549L110.268 153.45V153.592H110.12C107.413 153.623 101.979 153.691 99.2777 153.709L88.4353 153.752H88.127V153.444V146.542V146.259H88.4107H93.8812C97.335 146.296 106.525 146.45 110.095 146.512L110.12 146.549Z" fill="#EBEBEB"/>
<path d="M98.075 155.251H76.3901V162.152H98.075V155.251Z" fill="#EBEBEB"/>
<path d="M294.305 6.58398H272.62V13.4854H294.305V6.58398Z" fill="#EBEBEB"/>
<path d="M282.211 219.701H260.526V226.602H282.211V219.701Z" fill="#EBEBEB"/>
<path d="M294.306 210.999C290.704 211.06 281.471 211.215 277.993 211.258H272.621L272.905 210.974V217.875L272.596 217.567C276.198 217.567 285.381 217.616 288.86 217.666L294.281 217.734L294.133 217.875L294.281 210.974L294.306 210.999ZM294.306 210.999L294.454 217.9V218.048H294.306C291.598 218.085 286.171 218.147 283.463 218.171L272.621 218.208H272.312V217.894L272.343 210.993V210.715H272.621H278.091C281.545 210.752 290.741 210.912 294.306 210.968V210.999Z" fill="#EBEBEB"/>
<path d="M72.9485 219.701C69.3467 219.763 60.114 219.917 56.6356 219.96H51.2637L51.5474 219.676V226.578L51.239 226.269L62.0814 226.313C64.7828 226.313 70.2225 226.399 72.9239 226.436L72.7758 226.578L72.9239 219.676L72.9485 219.701ZM72.9485 219.701L73.0965 226.602V226.75H72.9485C70.241 226.787 64.8075 226.849 62.1061 226.874L51.2637 226.911H50.9553V226.596V219.695V219.405H51.2329H56.7034C60.1572 219.442 69.3467 219.602 72.9177 219.658L72.9485 219.701Z" fill="#EBEBEB"/>
<path d="M137.177 52.9757L136.054 60.9934C135.962 61.7956 135.707 62.5705 135.306 63.2713C134.905 63.972 134.365 64.584 133.721 65.0702C133.076 65.5563 132.339 65.9065 131.555 66.0994C130.771 66.2923 129.956 66.3241 129.159 66.1926C127.559 65.9632 126.115 65.11 125.142 63.8192C124.169 62.5284 123.746 60.905 123.966 59.3036L125.761 46.4752C125.761 46.3519 125.903 46.3704 125.921 46.247C125.816 46.1052 125.816 46.1052 125.829 45.9818C126.096 44.3995 126.959 42.9794 128.24 42.0127C129.521 41.046 131.123 40.6059 132.718 40.7826C134.543 41.0608 136.405 40.974 138.197 40.527C139.988 40.0801 141.673 39.282 143.154 38.1789C144.635 37.0759 145.882 35.69 146.823 34.1014C147.764 32.5128 148.38 30.7533 148.636 28.9247C148.892 27.0962 148.782 25.235 148.314 23.4492C147.845 21.6633 147.026 19.9882 145.905 18.5211C144.784 17.054 143.383 15.824 141.783 14.9024C140.183 13.9808 138.416 13.386 136.585 13.1524C134.19 12.8093 131.747 13.103 129.501 14.0037C127.256 14.9045 125.287 16.3806 123.793 18.2837C123.293 18.926 122.67 19.4628 121.961 19.8632C121.252 20.2636 120.471 20.5196 119.662 20.6165C118.854 20.7134 118.034 20.6493 117.251 20.4278C116.467 20.2063 115.735 19.8318 115.097 19.326C114.472 18.8277 113.951 18.2104 113.564 17.5098C113.178 16.8093 112.935 16.0392 112.848 15.244C112.76 14.4489 112.832 13.6443 113.057 12.8767C113.282 12.1092 113.657 11.3938 114.16 10.7717C116.834 7.35808 120.314 4.66221 124.287 2.92635C128.261 1.19049 132.604 0.469013 136.925 0.826755C141.247 1.1845 145.411 2.61025 149.045 4.9759C152.68 7.34155 155.669 10.573 157.745 14.3799C159.821 18.1867 160.919 22.4498 160.94 26.7859C160.961 31.1221 159.904 35.3955 157.865 39.2223C155.826 43.049 152.868 46.3091 149.257 48.7098C145.645 51.1104 141.495 52.5763 137.177 52.9757ZM133.396 79.9831L133.082 82.2034C132.992 83.0069 132.74 83.7837 132.34 84.4866C131.941 85.1895 131.402 85.8037 130.758 86.2918C130.113 86.7799 129.376 87.1318 128.591 87.3259C127.806 87.5201 126.99 87.5524 126.193 87.4211C124.591 87.1948 123.145 86.3422 122.171 85.0507C121.197 83.7591 120.776 82.1339 121 80.532L121.308 78.3117C121.549 76.7173 122.406 75.2809 123.693 74.3102C124.981 73.3396 126.598 72.9118 128.197 73.1187C128.992 73.2208 129.759 73.4803 130.453 73.8823C131.147 74.2842 131.753 74.8204 132.237 75.4596C132.722 76.0987 133.073 76.8279 133.272 77.6046C133.471 78.3813 133.513 79.1899 133.396 79.9831Z" fill="#EBEBEB"/>
<path d="M77.4262 91.3621L79.2209 97.9058C79.4164 98.5524 79.4783 99.2321 79.4029 99.9035C79.3275 100.575 79.1164 101.224 78.7824 101.811C78.4484 102.398 77.9985 102.912 77.46 103.319C76.9215 103.727 76.3057 104.022 75.65 104.184C74.3447 104.542 72.9509 104.368 71.774 103.699C70.597 103.031 69.7331 101.924 69.3715 100.619L66.4913 90.1347C66.4913 90.0422 66.5714 90.0114 66.5406 89.9065C66.4111 89.8387 66.4111 89.8387 66.3802 89.7339C66.0601 88.4292 66.2518 87.0515 66.916 85.8838C67.5801 84.7161 68.6662 83.8471 69.9512 83.4554C71.4878 83.1022 72.9369 82.4415 74.2114 81.5133C75.4858 80.5851 76.5592 79.4084 77.3668 78.0543C78.1743 76.7002 78.6994 75.1966 78.9104 73.6341C79.1214 72.0717 79.0138 70.4827 78.5943 68.9628C78.1748 67.443 77.4519 66.0239 76.4693 64.7909C75.4867 63.5579 74.2646 62.5366 72.8767 61.7885C71.4888 61.0404 69.9639 60.5811 68.3937 60.4381C66.8236 60.295 65.2407 60.4714 63.7406 60.9564C61.7864 61.4856 60.0065 62.5209 58.5804 63.9579C57.1542 65.3949 56.1324 67.1826 55.618 69.1407C55.4496 69.8028 55.1511 70.4248 54.7399 70.9705C54.3287 71.5161 53.8131 71.9745 53.223 72.3189C52.6329 72.6633 51.9802 72.8868 51.3029 72.9765C50.6256 73.0662 49.9372 73.0202 49.2778 72.8411C48.6318 72.665 48.0269 72.3628 47.498 71.9521C46.9691 71.5414 46.5266 71.0302 46.1959 70.4479C45.8652 69.8656 45.6528 69.2236 45.571 68.559C45.4892 67.8944 45.5396 67.2201 45.7192 66.575C46.6408 63.0637 48.4203 59.8363 50.8978 57.1828C53.3753 54.5294 56.4732 52.5331 59.9132 51.3732C63.3532 50.2133 67.0275 49.9263 70.6058 50.5378C74.1842 51.1494 77.5546 52.6404 80.4142 54.8768C83.2737 57.1133 85.5328 60.0251 86.9886 63.3508C88.4443 66.6764 89.0509 70.3116 88.7541 73.9297C88.4572 77.5478 87.2661 81.0354 85.2878 84.0793C83.3094 87.1231 80.6059 89.6278 77.42 91.3682L77.4262 91.3621ZM83.4826 113.38L83.9822 115.187C84.1774 115.835 84.2387 116.517 84.1622 117.189C84.0857 117.862 83.8731 118.512 83.5372 119.1C83.2014 119.688 82.7495 120.202 82.2089 120.609C81.6683 121.017 81.0504 121.31 80.3927 121.472C79.0868 121.826 77.6937 121.649 76.5175 120.98C75.3413 120.311 74.4774 119.204 74.1143 117.901L73.6085 116.087C73.2709 114.782 73.4549 113.397 74.1215 112.224C74.7882 111.052 75.885 110.186 77.1795 109.809C77.8274 109.621 78.5066 109.564 79.1768 109.642C79.847 109.721 80.4947 109.933 81.0817 110.265C81.6687 110.598 82.183 111.045 82.5943 111.58C83.0056 112.115 83.3056 112.727 83.4765 113.38H83.4826Z" fill="#EBEBEB"/>
<path d="M109.331 120.781L109.065 125.801C109.048 126.302 108.929 126.793 108.716 127.246C108.503 127.7 108.2 128.105 107.826 128.437C107.452 128.77 107.014 129.023 106.539 129.182C106.064 129.341 105.562 129.401 105.063 129.36C104.061 129.306 103.122 128.856 102.452 128.111C101.781 127.365 101.434 126.383 101.486 125.382L101.905 117.364C101.905 117.29 101.991 117.296 101.998 117.216C102.004 117.136 101.917 117.136 101.924 117.056C102.004 116.063 102.46 115.139 103.2 114.473C103.94 113.807 104.906 113.449 105.902 113.472C107.035 113.533 108.17 113.369 109.241 112.991C110.311 112.613 111.297 112.027 112.142 111.268C112.986 110.509 113.673 109.591 114.162 108.567C114.652 107.542 114.935 106.431 114.995 105.297C115.056 104.164 114.892 103.029 114.514 101.958C114.136 100.888 113.551 99.9018 112.791 99.0574C112.032 98.2129 111.114 97.5263 110.09 97.0366C109.065 96.547 107.954 96.2639 106.821 96.2035C105.321 96.1195 103.827 96.4315 102.486 97.1081C101.146 97.7847 100.008 98.8022 99.1852 100.058C98.9116 100.484 98.556 100.851 98.139 101.138C97.7221 101.425 97.2521 101.626 96.7567 101.729C96.2612 101.833 95.7501 101.836 95.2532 101.74C94.7564 101.644 94.2836 101.449 93.8626 101.168C93.4495 100.894 93.0948 100.54 92.8189 100.128C92.5431 99.7153 92.3515 99.2525 92.2552 98.7658C92.1589 98.2792 92.1598 97.7782 92.2578 97.2919C92.3559 96.8056 92.5491 96.3435 92.8265 95.9322C94.2967 93.6773 96.3042 91.8232 98.6685 90.5364C101.033 89.2496 103.68 88.5704 106.372 88.56C109.063 88.5496 111.716 89.2083 114.09 90.4768C116.464 91.7452 118.486 93.5838 119.973 95.8272C121.461 98.0706 122.368 100.649 122.612 103.329C122.857 106.01 122.432 108.709 121.374 111.185C120.317 113.66 118.662 115.834 116.556 117.512C114.451 119.189 111.961 120.316 109.312 120.793L109.331 120.781ZM108.436 137.686L108.362 139.074C108.348 139.574 108.232 140.067 108.022 140.522C107.811 140.977 107.511 141.384 107.138 141.719C106.765 142.054 106.329 142.31 105.854 142.471C105.38 142.632 104.878 142.696 104.378 142.657C103.376 142.603 102.435 142.153 101.765 141.405C101.094 140.658 100.747 139.675 100.801 138.673L100.875 137.285C100.942 136.288 101.394 135.356 102.137 134.687C102.88 134.017 103.854 133.664 104.853 133.702C105.352 133.722 105.842 133.842 106.294 134.054C106.745 134.267 107.15 134.568 107.484 134.939C107.818 135.31 108.074 135.744 108.238 136.216C108.401 136.688 108.469 137.188 108.436 137.686Z" fill="#DBDBDB"/>
<path d="M257.973 29.5578H208.621V78.9099H257.973V29.5578Z" fill="white"/>
<path d="M206.049 26.9798V81.4633H260.538V26.9798H206.049ZM257.973 78.8976H208.633V29.5578H257.973V78.8976Z" fill="#DBDBDB"/>
<path d="M254.414 69.3442V52.2849H215.948V69.3442H254.414Z" fill="#EBEBEB"/>
<path d="M243.146 64.0895V44.3782H223.435V64.0895H243.146Z" fill="#C7C7C7"/>
<path d="M262.641 26.986H260.538V81.4756H262.641V26.986Z" fill="#C7C7C7"/>
<path d="M283.475 102.081H234.123V151.433H283.475V102.081Z" fill="white"/>
<path d="M255.494 109.976H242.61V147.202H255.494V109.976Z" fill="#C7C7C7"/>
<path d="M231.558 99.5093V154.03H286.041V99.5093H231.558ZM283.475 151.433H234.136V102.093H283.475V151.433Z" fill="#DBDBDB"/>
<path d="M268.655 116.902H248.95V136.607H268.655V116.902Z" fill="#EBEBEB"/>
<path d="M288.15 99.5093H286.047V153.999H288.15V99.5093Z" fill="#C7C7C7"/>
<path d="M190.038 128.879C221.159 161.4 259.91 229.409 252.293 242.977C243.806 258.069 200.486 212.491 200.677 209.87C200.831 207.89 185.968 166.698 174.669 136.767C163.37 106.836 182.341 120.836 190.038 128.879Z" fill="#D3766A"/>
<path d="M200.381 209.882C199.098 205.485 178.85 151.187 173.084 134.022C167.317 116.858 172.979 111.659 189.946 127.559C206.912 143.459 243.831 196.258 252.009 224.111C259.891 250.939 246.144 250.73 228.19 238.148C213.487 227.842 200.381 209.882 200.381 209.882Z" fill="#0094DE"/>
<path d="M171.721 120.528C171.604 120.485 171.486 120.442 171.363 120.386C171.411 120.234 171.475 120.087 171.554 119.948C171.789 120.041 172.029 120.127 172.27 120.207C174.212 120.824 176.587 121.028 178.295 119.689C178.488 119.538 178.666 119.369 178.826 119.184L179.294 119.418C177.555 121.503 174.212 121.441 171.721 120.528ZM185.135 123.365L184.66 122.989C184.389 123.12 184.117 123.244 183.846 123.359C179.96 125.067 175.162 126.788 171.801 129.674L171.949 130.291C173.735 128.751 175.738 127.483 177.894 126.529C180.269 125.382 182.773 124.475 185.135 123.365ZM189.452 134.935C190.598 133.47 191.869 132.108 193.251 130.865C193.128 130.729 192.999 130.6 192.875 130.47C189.329 133.554 186.788 138.266 183.414 141.257C181.559 142.978 179.33 144.245 176.901 144.957C176.957 145.118 177.012 145.278 177.074 145.438C178.756 144.958 180.344 144.192 181.768 143.175C184.956 141.01 187.09 137.896 189.458 134.911L189.452 134.935ZM206.974 147.147C201.843 154.11 192.536 155.781 184.37 157.015C183.383 157.163 182.397 157.323 181.41 157.521C181.478 157.699 181.539 157.884 181.607 158.069C185.055 157.366 188.601 157.07 192.03 156.287C197.747 154.98 203.748 152.272 207.332 147.609L206.974 147.147ZM213.962 207.175C210.434 206.293 207.227 207.465 204.125 209.105C203.107 209.648 202.077 210.222 201.041 210.758L201.392 211.215C205.574 209.062 209.601 206.379 214.418 207.946C215.991 208.458 217.502 209.463 218.119 211.03C218.92 213.071 218.02 215.199 216.595 216.71C214.603 218.813 211.883 219.652 209.25 220.645L209.706 221.157L211.982 220.268C215.121 219.035 218.809 216.741 219.038 212.966C219.204 209.926 216.725 207.859 213.968 207.175H213.962ZM201.689 169.553C204.155 166.044 206.468 162.399 208.954 158.884C210.027 157.36 211.156 155.8 212.389 154.338L212.038 153.863C211.378 154.64 210.755 155.436 210.15 156.238C207.646 159.562 205.401 163.071 203.07 166.513C199.555 171.7 195.429 177.54 190.013 181.136C190.081 181.327 190.149 181.512 190.223 181.703C194.861 178.626 198.592 173.908 201.695 169.547L201.689 169.553ZM202.922 178.804C202.731 180.311 202.951 181.84 203.559 183.231C204.167 184.622 205.14 185.823 206.376 186.705C209.25 188.679 212.463 187.464 214.505 184.935C215.738 183.442 216.583 181.728 217.662 180.149C218.91 178.292 220.459 176.656 222.245 175.308C223.294 174.531 224.448 173.908 225.674 173.457L225.322 172.921C224.558 173.212 223.823 173.573 223.127 174C219.642 176.122 217.52 179.397 215.386 182.758C214.289 184.472 212.969 186.298 210.94 186.946C210.074 187.188 209.159 187.192 208.291 186.959C207.423 186.726 206.633 186.263 206.006 185.62C203.045 182.857 202.854 178.607 205.087 175.357C207.443 171.915 211.519 170.065 215.374 168.832C217.348 168.215 219.383 167.685 221.375 167.049L221.036 166.55C217.027 167.839 212.753 168.739 209.318 170.774C206.363 172.532 203.496 175.271 202.953 178.817L202.922 178.804ZM235.61 189.48C233.942 191.492 231.964 193.224 229.75 194.612C226.137 197.011 221.982 198.469 217.662 198.855C213.389 199.242 209.13 197.967 205.771 195.296C202.842 192.94 200.221 190.017 196.335 189.376C195.234 189.193 194.112 189.17 193.005 189.308C193.085 189.524 193.159 189.733 193.239 189.924C194.764 189.755 196.308 189.915 197.766 190.393C199.814 191.078 201.503 192.478 203.107 193.865C204.597 195.271 206.235 196.512 207.992 197.566C209.72 198.491 211.6 199.099 213.542 199.361C217.419 199.833 221.352 199.302 224.965 197.819C228.869 196.277 233.13 193.625 235.967 190.109L235.61 189.48ZM235.64 242.761C236.214 243.07 236.781 243.378 237.336 243.625C239.24 244.056 241.069 244.767 242.764 245.734C243.479 245.934 244.206 246.091 244.941 246.203C243.065 245.028 241.054 244.084 238.952 243.39C237.875 243.071 236.767 242.865 235.647 242.774L235.64 242.761ZM238.724 194.945L238.453 194.464C233.247 195.58 228.387 199.305 226.451 204.048C224.921 207.792 225.834 211.449 227.45 215.001C228.466 216.988 229.358 219.035 230.121 221.132C230.728 223.06 231.067 225.063 231.126 227.083C231.261 230.982 230.267 234.837 228.264 238.185L228.745 238.518C230.289 235.982 231.253 233.137 231.57 230.186C231.984 226.446 231.451 222.663 230.022 219.183C228.338 215.088 225.476 211.054 226.321 206.404C227.407 200.841 232.914 196.172 238.749 194.957L238.724 194.945ZM252.33 225.307C250.646 225.849 248.919 226.247 247.167 226.498C245.07 226.757 242.542 226.664 241.308 224.647C240.42 223.192 240.581 221.323 241.062 219.757C242.116 216.34 244.879 214.378 247.488 212.214C247.42 212.041 247.34 211.868 247.26 211.696C245.946 212.775 244.565 213.793 243.381 214.927C241.259 216.963 239.68 220.194 240.18 223.192C240.796 226.954 244.62 227.478 247.797 226.985C249.376 226.693 250.934 226.293 252.459 225.788C252.465 225.653 252.404 225.486 252.354 225.32L252.33 225.307Z" fill="white"/>
<path opacity="0.1" d="M228.19 238.148C213.487 227.848 200.381 209.882 200.381 209.882C199.104 205.485 178.844 151.187 173.084 134.022C170.956 127.676 170.383 122.97 171.369 120.362L228.19 238.148Z" fill="black"/>
<path d="M199.382 248.737H79.1965C79.1965 248.737 103.78 153.203 144.393 113.67C149.839 108.366 171.049 109.26 175.94 117.247C194.263 147.202 199.715 248.312 199.382 248.737Z" fill="#0094DE"/>
<path d="M184.099 195.216C179.375 201.926 184.512 211.067 192.043 212.645C193.59 212.961 195.189 212.908 196.711 212.491L196.767 213.108C195.361 213.491 193.891 213.579 192.45 213.367C185.752 212.325 180.115 205.189 181.91 198.392C183.291 193.095 188.694 189.406 194.047 189.24C194.047 189.462 194.103 189.678 194.133 189.9C193.673 189.906 193.214 189.943 192.758 190.011C191.04 190.254 189.388 190.84 187.9 191.734C186.413 192.629 185.12 193.813 184.099 195.216ZM84.3586 231.74L84.1736 231.586C84.1058 231.789 84.0441 231.993 83.9824 232.202C88.6759 236.082 89.6442 243.07 91.149 248.75H91.7658C90.1622 242.798 89.2864 235.934 84.3586 231.74ZM104.446 197.202C108.116 196.968 111.847 195.74 114.08 192.663C115.807 190.288 116.707 186.946 115.43 184.17C113.95 180.957 110.336 180.106 107.104 180.186C105.704 180.217 104.323 180.353 102.947 180.507L102.688 181.123C104.93 180.754 107.211 180.677 109.473 180.895C111.459 181.167 113.414 182.036 114.524 183.775C114.965 184.53 115.252 185.364 115.368 186.23C115.484 187.096 115.428 187.976 115.202 188.82C114.265 192.86 110.971 195.407 107.049 196.258C103.576 197.011 100.043 196.604 96.5641 196.104L96.342 196.666C99.0192 197.111 101.734 197.29 104.446 197.202ZM109.621 242.157C106.117 241.54 100.493 244.883 98.6055 240.307C97.187 236.877 99.2222 233.047 101.393 230.469C104.039 227.343 107.456 225.005 110.829 222.729C117.059 218.517 132.15 205.621 124.947 200.156C118.23 195.068 109.602 209.913 104.551 214.57C100.086 218.677 93.5482 222.396 87.1587 222.304L86.9736 222.853C93.431 222.964 99.8143 219.288 104.613 215.31C110.928 210.08 117.151 196.48 124.447 200.65C130.504 204.11 119.211 216.241 112.957 220.552C109.806 222.729 106.531 224.771 103.657 227.336C101.116 229.594 98.624 232.381 97.8531 235.786C97.2857 238.302 97.5755 241.534 100.135 242.854C101.763 243.699 103.607 243.378 105.328 243.051C107.493 242.632 109.522 242.379 111.533 243.47C112.536 244.024 113.415 244.777 114.115 245.684C114.816 246.591 115.322 247.633 115.603 248.744H116.263C116.263 248.744 116.263 248.744 116.263 248.713C115.418 245.586 112.852 242.761 109.602 242.163L109.621 242.157ZM153.589 166.032C152.071 165.157 150.333 164.737 148.583 164.824C146.833 164.91 145.145 165.499 143.721 166.519C140.637 168.702 138.743 172.23 137.294 175.634C135.678 179.44 134.21 183.652 131.065 186.471C129.363 188.006 126.68 189.351 124.589 187.704C123.226 186.631 122.739 184.738 122.659 183.066C122.541 179.489 124.675 176.109 126.809 173.408C129.017 170.602 131.595 168.116 133.822 165.322C135.888 162.732 137.701 159.772 138.188 156.441C138.429 154.795 138.188 153.012 136.838 151.908C135.671 151.082 134.231 150.737 132.816 150.946C129.313 151.285 126.322 153.832 124.213 156.497C123.037 158.007 122.004 159.624 121.129 161.326C120.173 163.145 119.464 165.088 118.496 166.877C117.373 168.974 115.443 169.991 113.111 169.276C111.578 168.769 110.249 167.783 109.318 166.463C109.232 166.642 109.146 166.821 109.066 167C110.78 169.103 113.346 170.744 116.078 169.856C117.811 169.288 118.742 167.722 119.458 166.155C120.284 164.305 121.086 162.498 122.06 160.746C124.015 157.225 126.735 153.617 130.596 152.056C132.218 151.402 134.297 151.137 135.906 151.982C138.145 153.16 137.861 155.911 137.276 157.989C135.314 164.878 128.832 169.233 124.941 174.962C123.164 177.59 121.69 180.76 122.11 184.01C122.492 186.933 124.577 189.653 127.815 188.944C131.62 188.117 134.099 184.102 135.647 180.858C137.411 177.158 138.595 173.204 141.106 169.923C143.616 166.642 147.47 164.447 151.646 165.871C156.117 167.395 158.677 171.811 158.843 176.356C159.152 184.664 153.292 191.54 147.322 196.554C141.574 201.371 135.08 205.294 129.764 210.629C123.874 216.564 120.041 224.231 118.829 232.505C118.082 237.58 118.089 243.686 120.142 248.725H120.919C120.311 247.232 119.861 245.68 119.575 244.093C117.996 235.619 119.92 226.442 124.164 219.01C128.253 211.85 134.679 206.947 141.186 202.118C146.909 197.868 152.904 193.44 156.524 187.143C160.397 180.501 161.316 170.343 153.57 166.038L153.589 166.032ZM173.614 205.251C173.549 203.367 173.044 201.524 172.142 199.869C171.239 198.213 169.963 196.791 168.415 195.716C167.012 194.752 165.356 194.224 163.654 194.199C161.952 194.174 160.28 194.652 158.849 195.574C155.883 197.473 153.965 200.835 153.231 204.208C152.164 209.111 153.052 214.144 153.151 219.09C153.314 228.574 150.752 237.905 145.768 245.974C145.182 246.918 144.535 247.825 143.869 248.737H144.707C146.715 245.994 148.388 243.021 149.691 239.881C151.496 235.694 152.722 231.281 153.336 226.763C153.983 222.001 153.681 217.333 153.428 212.578C153.188 208.001 153.336 203.209 156.006 199.299C158.356 195.858 162.463 193.748 166.54 195.463C170.617 197.177 172.905 201.519 172.991 205.837C173.238 214.761 166.824 222.254 162.426 229.439C160.33 232.856 158.448 236.47 157.567 240.405C156.956 243.147 156.864 245.98 157.295 248.756H157.912C157.413 245.606 157.598 242.386 158.455 239.314C160.718 231.296 166.62 224.999 170.389 217.727C172.368 213.854 173.867 209.611 173.596 205.257L173.614 205.251ZM191.531 232.387C189.237 229.649 185.912 227.83 182.28 228.187C178.949 228.514 176.026 230.654 175.31 234.016C174.49 237.901 176.544 241.935 178.672 245.049C179.498 246.283 180.436 247.473 181.33 248.719H182.027C180.349 246.314 178.468 244.032 177.191 241.373C175.341 237.525 174.724 232.246 179.042 229.772C182.687 227.669 187.177 228.891 190.081 231.654C193.227 234.651 194.701 238.931 195.577 243.082C195.965 244.932 196.261 246.782 196.557 248.719H197.143C196.243 242.903 195.367 237.001 191.512 232.406L191.531 232.387ZM153.601 110.494C153.264 110.526 152.931 110.563 152.602 110.605C151.195 112.245 149.573 113.687 147.779 114.891C145.31 116.573 142.574 117.824 139.687 118.591L138.935 119.443C139.632 119.301 140.322 119.122 141.001 118.906C145.521 117.45 150.468 114.521 153.601 110.494ZM154.464 127.596C153.723 126.119 153.532 124.427 153.928 122.822C154.618 119.689 157.122 116.655 160.404 116.131C164.653 115.44 168.008 119.177 171.721 120.528C173.608 121.219 175.976 121.422 177.777 120.577C177.709 120.429 177.635 120.288 177.568 120.152C175.958 120.966 173.947 120.769 172.27 120.207C168.495 118.974 165.486 115.502 161.286 115.551C155.735 115.625 151.479 122.687 153.885 127.664C154.729 129.391 156.352 130.563 157.739 131.796C159.189 132.999 160.351 134.512 161.137 136.224C161.846 137.831 162.221 139.564 162.239 141.32C162.257 143.076 161.918 144.817 161.242 146.438C160.6 148.008 159.521 149.361 158.133 150.337C156.744 151.312 155.105 151.868 153.41 151.939C151.792 151.979 150.187 151.649 148.716 150.975C147.245 150.301 145.948 149.299 144.923 148.047C143.939 146.818 143.379 145.304 143.326 143.73C143.27 141.621 144.066 139.573 144.559 137.563C145.343 134.571 145.46 130.649 142.037 129.28C139.292 128.176 136.042 129.551 133.896 131.296C131.028 133.622 129.868 137.291 128.265 140.486C126.55 143.897 124.046 147.135 119.97 147.505C119.711 147.505 119.458 147.542 119.205 147.542C119.094 147.739 118.983 147.942 118.866 148.158H119.026C122.319 148.189 125.07 146.475 126.976 143.841C129.221 140.757 130.183 136.934 132.354 133.788C134.204 131.118 138.17 128.651 141.513 129.705C146.379 131.241 143.936 137.26 143.135 140.628C142.407 143.668 142.746 146.536 144.899 148.917C148.864 153.29 156.352 153.851 160.225 149.102C164.197 144.205 163.345 136.335 158.837 132.074C157.382 130.661 155.47 129.489 154.464 127.596ZM172.183 145.352C175.458 146.586 179.073 145.075 181.774 143.206C182.92 142.404 183.978 141.484 184.932 140.461L184.784 139.931C184.346 140.4 183.889 140.85 183.421 141.269C180.577 143.792 176.248 146.327 172.35 144.846C168.335 143.323 167.484 138.636 168.754 134.978C170.185 130.828 174.114 128.311 177.895 126.535C178.598 126.206 179.307 125.892 180.022 125.592C179.967 125.431 179.899 125.277 179.831 125.117C174.046 127.627 167.99 130.877 167.638 137.809C167.478 141.004 169.044 144.162 172.183 145.352ZM192.641 179.162C190.177 181.343 187.262 182.953 184.105 183.88C179.695 185.114 175.224 184.041 172.424 180.285C171.22 178.6 170.31 176.723 169.735 174.734C168.976 172.267 168.427 169.609 169.118 167.074C170.241 162.818 174.324 160.154 178.295 158.908C181.7 157.835 185.277 157.477 188.78 156.904C188.737 156.706 188.7 156.509 188.663 156.287C187.22 156.546 185.783 156.774 184.383 156.984C180.22 157.601 175.946 158.464 172.553 161.116C171.011 162.251 169.802 163.781 169.055 165.545C168.307 167.308 168.048 169.24 168.304 171.138C168.791 174.95 170.315 179.156 173.047 181.907C175.779 184.657 179.603 185.441 183.328 184.651C186.815 183.831 190.045 182.164 192.733 179.797C192.69 179.606 192.641 179.384 192.641 179.162Z" fill="white"/>
<path d="M251.17 242.28C242.536 251.223 225.304 252.019 176.106 253.826C169.322 254.078 154.612 206.509 161.865 205.867C171.005 205.059 206.647 203.912 209.262 204.153C231.336 206.219 257.017 236.217 251.17 242.28Z" fill="#D3766A"/>
<path d="M177.697 207.015C177.697 207.015 158.313 202.697 147.427 203.592C132.854 204.782 120.759 211.813 115.868 215.063C105.661 221.847 85.6478 245.284 91.4267 252.247C96.6382 258.525 115.856 233.51 115.856 233.51C115.856 233.51 92.0497 255.781 99.7097 262.189C107.37 268.597 128.031 238.284 128.031 238.284C128.031 238.284 104.089 261.72 113.031 267.073C119.816 271.125 140.051 244.729 140.051 244.729C140.051 244.729 119.606 265.044 126.378 269.472C133.865 274.406 154.094 251.211 154.094 251.211C173.214 259.66 185.783 255.861 194.393 252.093C196.477 251.18 177.697 207.015 177.697 207.015Z" fill="#D3766A"/>
<path d="M123.596 225.276C120.703 227.793 117.762 230.321 115.103 233.084C112.445 235.847 109.886 238.703 107.493 241.719C101.634 249.077 99.1172 254.597 99.3084 254.27C103.866 246.61 113.228 236.569 115.887 233.806C118.545 231.043 121.055 228.157 123.707 225.394C123.775 225.307 123.664 225.221 123.596 225.276Z" fill="#263238"/>
<path d="M133.748 234.694C130.196 238.062 126.544 241.281 123.14 244.809C119.736 248.337 116.843 251.951 113.698 255.688C113.457 255.972 113.698 256.009 113.944 255.731C117.225 252.123 120.544 249.04 123.868 245.475C127.192 241.91 130.381 238.203 133.822 234.774C133.89 234.719 133.804 234.645 133.748 234.694Z" fill="#263238"/>
<path d="M143.918 241.207C138.225 246.079 133.433 252 128.881 257.915C128.653 258.211 128.962 258.223 129.208 257.915C134.105 252.265 137.898 247.794 144.084 241.38C144.183 241.306 144.035 241.102 143.918 241.207Z" fill="#263238"/>
<path d="M167.54 204.535L201.991 257.699C201.991 257.699 244.547 253.776 252.478 243.914C257.708 237.426 231.663 204.486 207.098 204.054L167.54 204.535Z" fill="#0094DE"/>
<path d="M173.596 205.257C173.714 207.673 173.385 210.089 172.628 212.386L172.214 211.77C172.775 209.845 173.037 207.846 172.991 205.843C172.979 205.391 172.942 204.94 172.88 204.492H173.497C173.547 204.739 173.579 204.994 173.596 205.257ZM182.847 228.169L183.217 228.736C185.777 228.841 188.208 229.886 190.045 231.672C193.19 234.669 194.664 238.95 195.54 243.1C195.978 245.154 196.292 247.282 196.619 249.422L197.384 250.606C196.391 244.186 195.774 237.494 191.506 232.406C189.348 229.822 186.264 228.039 182.853 228.169H182.847ZM230.041 219.214C228.807 216.26 227 213.342 226.396 210.197L225.822 209.858C226.124 211.646 226.678 213.382 227.469 215.014C228.485 217 229.377 219.048 230.139 221.144C230.747 223.072 231.086 225.075 231.145 227.096C231.391 235.218 226.945 243.181 218.84 245.463C211.55 247.516 203.28 244.365 201.238 236.637C200.337 233.347 200.704 229.838 202.268 226.806C204.335 222.976 208.158 221.798 211.97 220.287C215.109 219.053 218.797 216.759 219.025 212.985C219.204 209.901 216.725 207.853 213.968 207.169C210.44 206.287 207.233 207.459 204.131 209.099C200.363 211.091 196.496 213.577 192.043 212.639C189.93 212.156 187.977 211.14 186.368 209.688C184.76 208.236 183.549 206.396 182.853 204.344H182.107C182.864 206.635 184.223 208.679 186.042 210.265C187.86 211.85 190.071 212.917 192.444 213.355C200.461 214.588 206.351 205.337 214.412 207.933C215.985 208.445 217.496 209.451 218.113 211.017C218.914 213.059 218.014 215.186 216.589 216.697C213.469 219.991 208.572 220.176 204.994 222.748C199.919 226.399 199 233.818 201.578 239.227C204.618 245.611 212.241 247.781 218.742 246.061C226.1 244.112 230.787 237.574 231.601 230.18C232.007 226.452 231.472 222.682 230.047 219.214H230.041ZM245.805 227.164L245.354 226.609C243.769 226.565 242.215 226.115 241.327 224.672C240.776 223.706 240.559 222.585 240.71 221.483L240.174 220.947C240.057 221.699 240.057 222.464 240.174 223.216C240.692 226.189 243.214 227.145 245.811 227.164H245.805ZM238.959 243.403C236.048 242.539 232.631 242.385 229.819 243.686C226.821 245.068 225.551 248.004 225.964 251.223C226.113 252.176 226.319 253.119 226.581 254.048L227.099 253.949C226.482 251.42 225.97 248.898 227.345 246.597C229.122 243.637 233.081 243.082 236.22 243.446C240.155 243.902 243.418 246.11 246.798 247.991L247.47 247.652C244.67 246.104 241.981 244.297 238.959 243.403Z" fill="white"/>
<path d="M234.66 216.038C222.294 205.96 218.113 204.221 198.648 203.986C198.488 203.986 198.457 204.19 198.617 204.196C219.963 205.158 229.818 213.046 234.518 216.198C234.641 216.272 234.771 216.13 234.66 216.038Z" fill="#263238"/>
<path d="M214.653 251.71C211.18 245.66 207.381 239.801 203.551 233.954C199.721 228.107 195.934 222.236 191.975 216.494C189.736 213.238 187.516 209.975 185.191 206.799C185.129 206.718 184.975 206.799 185.03 206.891C188.496 212.935 192.271 218.813 196.039 224.672C199.807 230.531 203.65 236.39 207.541 242.194C209.743 245.469 212.001 248.707 214.326 251.883C214.468 252.037 214.757 251.883 214.653 251.71Z" fill="#263238"/>
<path opacity="0.1" d="M210.983 204.381L182.613 227.817L167.521 204.535L207.091 204.054C207.554 204.054 208.023 204.085 208.492 204.116L210.706 204.356L210.983 204.381Z" fill="black"/>
<path d="M129.887 146.53C124.836 203.555 132.73 248.978 156.672 252.253C172.572 254.424 168.588 206.207 168.551 205.177C168.428 201.649 166.596 172.224 155.322 140.215C142.919 105.005 132.144 121.052 129.887 146.53Z" fill="#D3766A"/>
<path d="M129.887 146.53C124.836 203.555 132.73 248.978 156.672 252.253C172.572 254.424 174.799 213.762 174.762 212.732C174.632 209.204 166.596 172.224 155.322 140.215C142.919 105.005 132.144 121.052 129.887 146.53Z" fill="#0094DE"/>
<path d="M156.703 144.273C160.188 155.01 163.358 165.859 166.435 176.714C169.365 187.612 172.492 198.497 174.33 209.642C170.154 190.523 161.902 163.448 156.703 144.267V144.273Z" fill="#263238"/>
<path d="M159.651 146.937C160.441 150.021 161.033 153.308 160.305 156.429C160.397 153.302 159.818 150.058 159.651 146.937Z" fill="#263238"/>
<path d="M132.41 133.807C132.132 134.208 131.879 134.615 131.633 135.04C131.76 134.469 131.896 133.907 132.04 133.356C132.586 132.598 133.229 131.914 133.951 131.321C136.098 129.576 139.348 128.2 142.093 129.304C145.516 130.674 145.398 134.596 144.615 137.587C144.091 139.598 143.295 141.645 143.382 143.755C143.435 145.328 143.995 146.843 144.979 148.072C146.004 149.324 147.301 150.325 148.772 151C150.243 151.674 151.848 152.004 153.465 151.964C155.364 151.913 157.19 151.222 158.646 150.002C158.714 150.194 158.776 150.385 158.837 150.582C154.761 153.728 148.494 152.827 144.985 148.96C142.833 146.579 142.518 143.712 143.221 140.671C144.023 137.304 146.465 131.284 141.599 129.748C138.226 128.669 134.254 131.136 132.41 133.807ZM138.195 156.46C138.435 154.813 138.195 153.031 136.844 151.927C135.679 151.092 134.235 150.741 132.817 150.946C131.627 151.069 130.473 151.423 129.418 151.988C129.418 152.204 129.381 152.42 129.369 152.636C129.767 152.413 130.179 152.217 130.603 152.05C132.225 151.396 134.303 151.131 135.913 151.976C138.152 153.154 137.868 155.905 137.282 157.983C135.845 163.028 131.984 166.716 128.506 170.577C128.506 170.855 128.506 171.132 128.506 171.404C130.276 169.374 132.157 167.444 133.834 165.335C135.9 162.751 137.707 159.796 138.195 156.46ZM156.568 187.155C160.398 180.501 161.317 170.343 153.57 166.038C152.052 165.163 150.315 164.743 148.565 164.83C146.815 164.916 145.127 165.505 143.702 166.525C140.619 168.708 138.725 172.236 137.276 175.641C135.66 179.446 134.192 183.658 131.047 186.477C130.321 187.142 129.486 187.678 128.58 188.062C128.58 188.284 128.58 188.5 128.61 188.716C131.972 187.544 134.211 183.868 135.648 180.858C137.411 177.158 138.596 173.204 141.106 169.923C143.616 166.642 147.471 164.447 151.646 165.871C156.117 167.395 158.677 171.811 158.843 176.356C159.152 184.664 153.293 191.54 147.323 196.554C141.852 201.137 135.709 204.911 130.547 209.864C130.59 210.154 130.633 210.444 130.683 210.727C133.975 207.612 137.478 204.727 141.167 202.093C146.953 197.88 152.941 193.452 156.568 187.155ZM170.401 217.684C172.251 214.138 173.652 210.215 173.627 206.188C173.627 205.874 173.627 205.571 173.596 205.257C173.496 203.571 173.078 201.92 172.363 200.391C171.496 198.495 170.118 196.879 168.384 195.722C166.982 194.758 165.325 194.23 163.623 194.205C161.921 194.18 160.25 194.658 158.819 195.58C155.852 197.48 153.934 200.841 153.2 204.214C152.133 209.118 153.021 214.15 153.12 219.097C153.292 228.575 150.74 237.903 145.768 245.974C145.633 246.196 145.491 246.412 145.349 246.634C145.516 246.795 145.688 246.949 145.861 247.103C147.352 244.815 148.633 242.398 149.691 239.881C151.496 235.694 152.722 231.281 153.336 226.763C153.983 222.001 153.681 217.333 153.428 212.578C153.188 208.001 153.336 203.209 156.006 199.299C158.356 195.858 162.464 193.748 166.54 195.463C170.617 197.177 172.905 201.519 172.992 205.837C173.238 214.761 166.824 222.254 162.427 229.439C160.33 232.856 158.449 236.47 157.567 240.405C156.74 244.137 156.87 248.017 157.943 251.686C158.005 251.908 158.079 252.13 158.146 252.352C158.356 252.352 158.566 252.352 158.763 252.308C157.388 248.101 157.283 243.581 158.461 239.314C160.731 231.271 166.633 224.956 170.401 217.684Z" fill="white"/>
<path d="M128.801 154.35C128.733 168.27 129.091 182.209 130.244 196.073C131.706 213.423 135.795 249.996 157.998 251.722C161.477 251.932 164.684 251.254 167.496 249.077C171.708 246.061 175.23 242.181 178.597 238.259C185.301 230.34 191.383 221.551 197.02 213.009L195.669 211.634L197.069 212.96C195.293 215.97 193.412 218.912 191.518 221.835C185.875 230.254 172.856 249.589 163.29 252.358C151.572 254.954 142.764 246.906 138.003 236.976C127.518 214.816 128.135 178.891 128.783 154.332L128.801 154.35Z" fill="#263238"/>
<path d="M127.654 157.798C127.95 160.438 128.382 162.985 128.666 165.625C127.711 163.133 127.364 160.45 127.654 157.798Z" fill="#263238"/>
<path d="M169.501 144.162C169.501 144.162 148.981 125.388 136.122 126.276L125.52 136.329C125.52 136.329 121.974 137.624 120.784 135.385C117.854 129.835 116.855 116.266 128.252 107.064C138.694 98.6212 160.73 99.5401 175.489 102.908C189.674 106.139 197.692 114.151 193.677 123.458C189.662 132.764 169.501 144.162 169.501 144.162Z" fill="#0094DE"/>
<path opacity="0.1" d="M170.765 139.808C170.765 139.808 186.492 127.763 187.929 120.88C189.366 113.997 175.489 107.928 166.583 105.677C152.799 102.18 143.529 103.37 136.122 110.913C128.715 118.456 170.765 139.808 170.765 139.808Z" fill="black"/>
<path d="M173.035 137.513C165.683 138.438 154.532 126.159 150.64 116.754C150.375 116.137 151.997 109.79 153.607 102.019C154.563 97.3013 155.519 92.0281 156.043 87.1497C156.148 86.1444 185.838 97.8626 185.838 97.8626C185.838 97.8626 181.737 107.768 180.873 116.279C180.815 116.952 180.815 117.629 180.873 118.302C180.873 118.394 180.873 118.511 180.873 118.641C181.089 122.508 180.139 136.613 173.035 137.513Z" fill="#D3766A"/>
<path d="M177.722 118.462C178.765 118.613 179.82 118.671 180.874 118.635C180.874 118.505 180.874 118.394 180.874 118.295C180.809 117.623 180.809 116.945 180.874 116.273C181.731 107.774 185.808 97.8688 185.808 97.8688C185.808 97.8688 161.705 88.3524 156.821 87.1991C157.228 92.9348 159.719 116.131 177.722 118.462Z" fill="#263238"/>
<path d="M146.311 62.597C145.54 73.976 158.288 103.37 167.441 108.458C180.707 115.859 198.895 112.609 204.236 97.4802C209.435 82.8078 192.141 44.7977 182.249 40.5421C167.687 34.2698 147.452 45.7845 146.311 62.597Z" fill="#D3766A"/>
<path d="M180.602 74.8703C180.553 74.8024 180.485 75.0306 180.522 75.1108C181.435 77.072 182.15 79.465 180.639 80.8897C180.59 80.9391 180.639 81.0316 180.701 80.9946C182.773 79.7487 181.78 76.5786 180.602 74.8703Z" fill="#263238"/>
<path d="M177.944 73.5566C174.65 74.6852 177.136 81.1919 180.189 80.1496C183.242 79.1073 180.707 72.6191 177.944 73.5566Z" fill="#263238"/>
<path d="M192.863 69.8746C192.863 69.7883 193.054 69.8746 193.085 69.9918C193.788 72.0332 194.935 74.2474 197.026 74.2227C197.088 74.2227 197.119 74.3214 197.026 74.3399C194.707 74.8764 193.202 71.9161 192.863 69.8746Z" fill="#263238"/>
<path d="M193.874 67.0684C197.02 65.582 199.764 72.0024 196.847 73.3592C193.93 74.7161 191.216 68.3019 193.874 67.0684Z" fill="#263238"/>
<path d="M175.144 73.8156C176.043 73.497 176.924 73.1306 177.784 72.7178C178.795 72.2861 179.634 72.0455 180.251 71.0834C180.397 70.7934 180.444 70.4628 180.382 70.1435C180.321 69.8243 180.155 69.5345 179.911 69.3195C178.82 68.4499 177.444 68.6719 176.211 69.1468C174.951 69.5716 173.895 70.4514 173.25 71.6138C172.578 72.835 173.91 74.198 175.144 73.8156Z" fill="#263238"/>
<path d="M194.022 61.6842C193.081 61.8401 192.132 61.9471 191.179 62.0049C190.088 62.1159 189.224 62.3133 188.219 61.7767C187.95 61.5939 187.748 61.3275 187.646 61.0187C187.543 60.7098 187.545 60.3758 187.651 60.0683C188.194 58.7793 189.502 58.3106 190.803 58.1255C192.118 57.8928 193.473 58.1589 194.602 58.8718C195.786 59.5872 195.281 61.4251 194.022 61.6842Z" fill="#263238"/>
<path d="M185.795 93.5885C186.455 93.8784 187.189 94.341 187.942 94.1251C188.686 93.8227 189.359 93.3666 189.915 92.7868C189.926 92.7726 189.941 92.7627 189.958 92.7588C189.975 92.7548 189.993 92.7572 190.009 92.7653C190.025 92.7735 190.037 92.787 190.043 92.8034C190.05 92.8197 190.05 92.8379 190.045 92.8546C189.907 93.3613 189.636 93.8216 189.26 94.1874C188.883 94.5531 188.415 94.8107 187.905 94.933C186.93 95.1181 186.178 94.5013 185.635 93.7551C185.561 93.6379 185.697 93.533 185.795 93.5885Z" fill="#263238"/>
<path d="M187.041 90.4C189.2 88.3955 192.592 87.4457 194.794 86.8968C195.009 86.7735 195.046 86.2307 194.997 85.9964L193.215 81.7902C193.887 81.8518 197.242 82.0245 196.884 81.2413C193.912 74.7654 190.606 67.5618 186.282 61.7397C186.256 61.6939 186.213 61.6604 186.162 61.6465C186.111 61.6326 186.057 61.6395 186.011 61.6657C185.965 61.6919 185.932 61.7352 185.918 61.7861C185.904 61.8369 185.911 61.8913 185.937 61.9371C188.546 68.2711 192.253 74.1117 194.979 80.4395C193.93 80.4395 192.197 80.384 191.401 80.717C191.204 80.8589 193.517 85.0713 193.708 85.7867C193.708 85.7867 189.169 86.1506 186.671 89.555C186.017 90.4185 186.005 91.3559 187.041 90.4Z" fill="#263238"/>
<path d="M152.867 90.5048C157.838 90.0484 159.263 81.9073 159.349 78.6632C159.435 75.4191 154.884 63.3494 155.476 58.3106C156.068 53.2717 160.737 49.966 164.85 49.6761C168.964 49.3862 175.594 52.4145 178.228 51.1316C180.861 49.8488 179.276 43.6813 181.176 42.9597C185.357 41.3747 191.044 49.9907 193.548 54.2894C193.548 54.2894 188.151 33.32 165.961 39.4874C145.725 45.0382 144.547 60.9688 145.084 67.5063C146.101 79.9707 152.867 90.5048 152.867 90.5048Z" fill="#263238"/>
<path d="M182.576 88.1796C180.925 88.6551 179.174 88.6578 177.522 88.1875C175.87 87.7171 174.383 86.7925 173.231 85.5189C172.078 84.2453 171.306 82.6737 171.003 80.9831C170.699 79.2924 170.876 77.5505 171.513 75.9554C172.151 74.3604 173.223 72.9762 174.608 71.9605C175.994 70.9447 177.636 70.3381 179.349 70.2096C181.062 70.0811 182.776 70.4359 184.298 71.2337C185.819 72.0314 187.086 73.2401 187.954 74.7222C189.181 76.8233 189.524 79.325 188.909 81.679C188.294 84.0329 186.77 86.0468 184.673 87.2792C184.013 87.6642 183.309 87.9666 182.576 88.1796ZM177.839 71.7187C177.204 71.9006 176.594 72.1639 176.026 72.5019C174.289 73.5259 173.008 75.1734 172.443 77.1089C171.878 79.0444 172.072 81.1224 172.986 82.9198C173.899 84.7173 175.464 86.0989 177.36 86.7834C179.257 87.468 181.343 87.404 183.194 86.6044C185.045 85.8049 186.521 84.3299 187.323 82.4799C188.124 80.6298 188.191 78.5438 187.508 76.6465C186.826 74.7493 185.446 73.1835 183.65 72.268C181.853 71.3524 179.775 71.156 177.839 71.7187Z" fill="#EBEBEB"/>
<path d="M201.948 79.9214C198.574 80.8959 194.547 78.324 192.697 73.9081C191.772 71.8134 191.529 69.4816 192 67.2411C192.175 66.2791 192.579 65.3734 193.178 64.6005C193.777 63.8276 194.553 63.2102 195.441 62.8005C197.168 62.0727 199.142 62.3133 201.023 63.4543C202.951 64.6874 204.445 66.4923 205.297 68.6164C207.252 73.2852 206.018 78.2685 202.546 79.7179C202.352 79.8 202.152 79.868 201.948 79.9214ZM196.342 63.7811C196.191 63.8242 196.043 63.8757 195.897 63.9353C195.189 64.2706 194.571 64.772 194.098 65.3969C193.624 66.0219 193.309 66.7518 193.178 67.5248C192.764 69.5105 192.98 71.5756 193.794 73.4332C195.497 77.4729 199.185 79.7981 202.04 78.5954C204.896 77.3927 205.827 73.1372 204.131 69.0913C203.382 67.2057 202.062 65.6014 200.357 64.5027C199.774 64.1099 199.116 63.8428 198.425 63.7186C197.734 63.5943 197.024 63.6156 196.342 63.7811Z" fill="#EBEBEB"/>
<path d="M188.077 75.8201L186.986 75.2588C187.818 73.6429 190.18 70.9416 193.153 72.2923L192.654 73.4086C189.989 72.1997 188.157 75.7029 188.077 75.8201Z" fill="#EBEBEB"/>
<path d="M151.319 93.8229L150.085 93.7242C150.129 93.1568 150.597 88.1118 152.953 86.644C155.155 85.2748 170.913 80.3285 171.579 80.1188L171.949 81.2906C167.428 82.7029 155.297 86.6193 153.601 87.6801C152.034 88.6546 151.405 92.4414 151.319 93.8229Z" fill="#EBEBEB"/>
<path d="M160.712 86.6502C160.712 86.6502 151.319 78.5214 147.433 82.1232C143.548 85.725 152.411 98.7261 158.171 99.3552C163.931 99.9842 164.61 94.6555 164.61 94.6555L160.712 86.6502Z" fill="#D3766A"/>
<path d="M150.085 85.7867C150.066 85.7867 150.047 85.7945 150.033 85.8084C150.019 85.8223 150.011 85.8411 150.011 85.8607C150.011 85.8803 150.019 85.8992 150.033 85.913C150.047 85.9269 150.066 85.9347 150.085 85.9347C154.156 86.496 156.968 89.4255 159.226 92.6264C157.782 91.541 156.099 91.1709 154.6 92.941C154.526 93.0335 154.656 93.163 154.754 93.1137C156.179 92.4044 157.338 92.3921 158.664 93.3419C159.574 94.072 160.401 94.8992 161.131 95.8088C161.39 96.0926 161.939 95.7657 161.717 95.4203C161.705 95.3915 161.688 95.3645 161.668 95.3401C160.57 90.6343 155.229 84.9541 150.085 85.7867Z" fill="#263238"/>
<path d="M170.765 139.808C170.765 139.808 153.934 113.374 133.951 111.369L136.122 126.276C136.122 126.276 147.989 125.906 169.501 144.162L170.765 139.808Z" fill="#0094DE"/>
<path d="M130.769 126.714C134.395 126.14 138.04 126.825 141.494 127.787C144.954 128.817 148.286 130.239 151.424 132.024C154.587 133.771 157.63 135.726 160.533 137.877L164.807 141.226L168.933 144.772L169.396 145.173L169.889 144.902C173.535 142.867 177.038 140.586 180.374 138.075C182.061 136.841 183.672 135.507 185.197 134.078C186.736 132.669 188.135 131.114 189.372 129.434C186.523 132.468 183.149 134.867 179.739 137.174C178.024 138.315 176.26 139.388 174.478 140.418C172.695 141.448 170.907 142.49 169.093 143.422L170.043 143.545L165.911 139.875C164.486 138.71 163.031 137.575 161.594 136.446C160.157 135.318 158.566 134.325 157.005 133.363C155.445 132.4 153.841 131.438 152.164 130.649C148.869 128.934 145.368 127.649 141.747 126.825C140.853 126.603 139.928 126.48 139.015 126.325C138.102 126.171 137.164 126.134 136.246 126.122C134.4 126.008 132.548 126.208 130.769 126.714Z" fill="#263238"/>
<path d="M125.52 136.329C127.493 134.887 129.366 133.313 131.126 131.617C132.912 129.949 134.582 128.161 136.122 126.264C134.146 127.702 132.271 129.274 130.51 130.97C128.729 132.643 127.062 134.433 125.52 136.329Z" fill="#263238"/>
<path d="M163.148 134.541C162.517 140.833 162.43 147.168 162.889 153.475C163.179 157.878 166.238 173.488 171.073 172.495C175.909 171.502 167.071 162.01 164.949 153.832C162.803 145.519 164.53 139.363 164.394 134.362L163.148 134.541Z" fill="#0094DE"/>
<g opacity="0.1">
<path d="M163.148 134.541C162.517 140.833 162.43 147.168 162.889 153.475C163.179 157.878 166.238 173.488 171.073 172.495C175.909 171.502 167.071 162.01 164.949 153.832C162.803 145.519 164.53 139.363 164.394 134.362L163.148 134.541Z" fill="black"/>
</g>
<path d="M179.64 135.324C181.802 140.634 183.503 146.121 184.722 151.723C185.604 155.627 186.954 169.991 182.495 170.367C178.036 170.744 183.285 160.234 183.026 152.562C182.773 144.779 179.689 139.845 178.511 135.484L179.64 135.324Z" fill="#0094DE"/>
<g opacity="0.1">
<path d="M179.64 135.324C181.802 140.634 183.503 146.121 184.722 151.723C185.604 155.627 186.954 169.991 182.495 170.367C178.036 170.744 183.285 160.234 183.026 152.562C182.773 144.779 179.689 139.845 178.511 135.484L179.64 135.324Z" fill="black"/>
</g>
<path d="M161.125 248.793C174.249 246.776 195.755 217.209 209.386 183.418C211.982 176.985 162.038 150.977 160.046 158.131C153.706 181.08 141.29 211.097 141.691 229.612C142.018 244.007 152.053 250.193 161.125 248.793Z" fill="#D3766A"/>
<path d="M184.487 133.776C181.305 129.878 180.818 118.974 177.962 112.547C175.107 106.121 166.737 103.105 165.263 105.467C163.789 107.829 165.973 110.21 166.657 120.769C167.095 127.553 161.896 141.121 164.116 153.456C165.233 159.642 187.707 137.674 184.487 133.776Z" fill="#F7A9A0"/>
<path d="M184.487 133.776C181.305 129.878 180.818 118.974 177.962 112.547C175.107 106.121 166.737 103.105 165.263 105.467C163.789 107.829 165.973 110.21 166.657 120.769C167.095 127.553 161.896 141.121 164.116 153.456C165.233 159.642 187.707 137.674 184.487 133.776Z" fill="#D3766A"/>
<path opacity="0.06" d="M184.487 133.776C181.305 129.878 180.818 118.974 177.962 112.547C175.107 106.121 166.737 103.105 165.263 105.467C163.789 107.829 165.973 110.21 166.657 120.769C167.095 127.553 161.896 141.121 164.116 153.456C165.233 159.642 187.707 137.674 184.487 133.776Z" fill="black"/>
<path d="M209.293 100.613C213.752 104.77 202.564 114.891 202.564 114.891C202.564 114.891 206.629 113.793 210.163 115.767C214.209 118.018 212.445 125.357 212.445 125.357C212.445 125.357 216.793 125.098 220.314 127.553C223.972 130.106 223.244 137.76 223.244 137.76C223.244 137.76 227.426 139.746 228.943 144.051C231.545 151.421 223.392 160.259 219.445 166.729C215.208 173.655 209.891 182.252 206.845 186.52L159.078 162.22C159.078 162.22 167.262 125.69 173.744 119.436C179.227 114.169 202.509 94.2546 209.293 100.613Z" fill="#D3766A"/>
<path d="M202.373 114.86C195.219 119.066 189.088 124.975 183.254 130.741C183.227 130.768 183.212 130.805 183.212 130.843C183.212 130.881 183.227 130.918 183.254 130.945C183.281 130.972 183.318 130.987 183.356 130.987C183.394 130.987 183.431 130.972 183.458 130.945C189.212 125.141 196.656 120.738 202.626 115.175C202.668 115.141 202.694 115.092 202.7 115.039C202.706 114.986 202.69 114.933 202.657 114.891C202.623 114.849 202.575 114.823 202.521 114.817C202.468 114.811 202.415 114.827 202.373 114.86Z" fill="#263238"/>
<path d="M211.865 125.092C210.274 126.091 209.022 127.614 207.764 128.984C206.407 130.458 205.075 131.963 203.773 133.48C201.158 136.522 198.619 139.629 196.156 142.799C196.045 142.941 196.237 143.144 196.36 143.002C198.969 139.974 201.627 136.983 204.378 134.072C205.747 132.612 207.128 131.173 208.522 129.755C209.811 128.416 211.291 127.115 212.266 125.511C212.293 125.485 212.315 125.454 212.331 125.419C212.346 125.384 212.355 125.346 212.355 125.308C212.356 125.27 212.35 125.232 212.336 125.197C212.322 125.161 212.301 125.129 212.275 125.101C212.249 125.074 212.217 125.052 212.182 125.036C212.148 125.021 212.11 125.013 212.072 125.012C212.034 125.011 211.996 125.017 211.96 125.031C211.925 125.045 211.893 125.066 211.865 125.092Z" fill="#263238"/>
<path d="M223.151 137.883C221.733 138.697 220.684 140.35 219.642 141.584C218.483 142.998 217.313 144.404 216.133 145.802C213.777 148.596 211.421 151.39 208.966 154.104C208.843 154.239 209.046 154.443 209.17 154.307C211.674 151.563 214.215 148.855 216.694 146.086C217.928 144.729 219.138 143.364 220.327 141.991C221.351 140.825 222.763 139.487 223.293 138.001C223.3 137.982 223.3 137.961 223.294 137.942C223.289 137.923 223.278 137.906 223.262 137.893C223.247 137.881 223.228 137.873 223.209 137.871C223.189 137.869 223.169 137.874 223.151 137.883Z" fill="#263238"/>
<path d="M203.983 99.3737C195.873 102.729 186.153 109.858 180.454 114.287C178.327 115.935 176.287 117.693 174.342 119.554C172.455 121.447 171.221 123.871 170.025 126.245C169.205 127.855 168.508 129.526 167.817 131.179C169.05 126.862 170.531 122.273 173.602 118.844C175.521 116.886 177.569 115.058 179.732 113.374C185.468 108.964 191.352 104.493 198.025 101.612L203.983 99.3737Z" fill="#263238"/>
<path d="M149.771 171.459L197.045 212.985C197.045 212.985 172.325 252.938 160.798 252.154C149.271 251.371 136.745 243.908 137.689 216.198C137.917 209.259 149.771 171.459 149.771 171.459Z" fill="#0094DE"/>
<path d="M141.229 202.136L140.612 202.58C140.699 202.247 140.791 201.914 140.878 201.575C143.067 199.953 145.256 198.325 147.341 196.573C152.602 192.169 157.752 186.323 158.708 179.304L159.176 179.717C158.746 182.321 157.855 184.828 156.543 187.118C152.941 193.452 146.952 197.88 141.229 202.136ZM168.397 195.728C166.994 194.764 165.337 194.236 163.635 194.211C161.933 194.186 160.262 194.664 158.831 195.586C155.864 197.486 153.946 200.847 153.212 204.221C152.145 209.124 153.034 214.156 153.132 219.103C153.299 228.487 150.795 237.725 145.91 245.74C146.077 245.913 146.249 246.079 146.422 246.24C147.67 244.202 148.765 242.075 149.697 239.875C151.502 235.688 152.728 231.275 153.342 226.757C153.99 221.995 153.687 217.327 153.434 212.571C153.194 207.995 153.342 203.203 156.012 199.293C158.362 195.851 162.47 193.742 166.547 195.457C170.623 197.171 172.905 201.519 172.992 205.837C173.238 214.761 166.824 222.254 162.427 229.439C160.33 232.856 158.449 236.47 157.567 240.405C156.74 244.137 156.87 248.017 157.943 251.686C157.957 251.738 157.973 251.789 157.992 251.84L158.652 251.945C157.386 247.838 157.321 243.455 158.467 239.314C160.731 231.296 166.633 224.999 170.401 217.727C172.369 213.91 173.867 209.654 173.596 205.3C173.537 203.408 173.036 201.557 172.133 199.894C171.23 198.231 169.951 196.802 168.397 195.722V195.728ZM182.249 228.212C178.918 228.539 175.995 230.679 175.28 234.04C174.774 236.446 175.366 238.913 176.396 241.176C176.538 241.01 176.692 240.843 176.84 240.677C175.255 236.914 174.99 232.116 179.011 229.797C180.066 229.21 181.234 228.855 182.437 228.757C183.64 228.659 184.851 228.821 185.986 229.23C186.11 229.063 186.227 228.897 186.356 228.73C185.044 228.251 183.64 228.072 182.249 228.206V228.212ZM196.533 212.541C195.055 212.907 193.514 212.935 192.024 212.621C186.202 211.387 181.811 205.664 182.298 200.027L181.682 199.466C180.726 205.911 186.104 212.356 192.444 213.342C193.973 213.565 195.532 213.453 197.014 213.015L197.045 212.96L196.533 212.541Z" fill="white"/>
<path d="M149.247 188.635C151.56 190.566 153.718 192.7 155.914 194.76C158.109 196.82 160.293 198.91 162.445 201.026C166.746 205.257 171.012 209.518 175.243 213.811C176.396 214.989 177.549 216.167 178.684 217.37C179.819 218.572 180.948 220.09 182.175 221.354C182.189 221.375 182.196 221.401 182.194 221.427C182.191 221.452 182.18 221.476 182.162 221.495C182.143 221.513 182.119 221.524 182.094 221.527C182.068 221.529 182.042 221.523 182.021 221.508C180.948 220.49 179.726 219.621 178.629 218.622C177.531 217.623 176.378 216.525 175.267 215.458C173.096 213.365 170.934 211.264 168.779 209.155C164.462 204.936 160.188 200.687 156.025 196.332C153.675 193.865 151.227 191.448 149.025 188.851C148.996 188.822 148.98 188.782 148.981 188.741C148.982 188.7 148.998 188.661 149.028 188.632C149.057 188.604 149.097 188.588 149.138 188.589C149.179 188.589 149.218 188.606 149.247 188.635Z" fill="#263238"/>
<path d="M155.124 176.165L149.66 171.589L149.925 171.515C147.328 181.308 144.461 191.028 141.772 200.792C140.53 205.013 139.5 209.295 138.688 213.62C137.984 219.25 137.967 224.946 138.638 230.58C137.28 224.984 136.842 219.203 137.343 213.466C138.682 203.999 141.716 194.865 144.541 185.768C146.15 180.864 147.853 175.998 149.697 171.175L149.876 171.336L155.118 176.165H155.124Z" fill="#263238"/>
<path d="M290.66 194.391C282.569 205.345 274.138 218.056 272.084 231.791C272.084 231.995 272.392 232.062 272.442 231.859C273.372 228.113 274.567 224.438 276.019 220.862C281.335 219.401 286.553 218.198 289.347 212.919C292.196 207.491 291.814 200.423 291.289 194.509C291.252 194.206 290.821 194.206 290.66 194.391Z" fill="#10B5BF"/>
<path d="M276.099 220.757C279.732 212.604 284.394 204.42 290.321 197.716C290.329 197.707 290.341 197.701 290.353 197.701C290.365 197.7 290.377 197.704 290.386 197.713C290.395 197.721 290.4 197.732 290.401 197.744C290.402 197.756 290.397 197.768 290.389 197.777C286.51 202.557 283.556 207.756 280.675 213.048C283.358 210.328 286.288 207.892 288.829 205.03C288.878 204.969 288.958 205.03 288.909 205.11C286.386 208.133 283.636 211.414 280.361 213.652C279.481 215.272 278.591 216.899 277.69 218.531C277.912 218.408 278.141 218.297 278.363 218.186C278.406 218.186 278.437 218.229 278.4 218.247C278.147 218.377 277.9 218.506 277.641 218.617C277.215 219.388 276.796 220.159 276.358 220.93C276.259 221.078 276.019 220.93 276.099 220.757Z" fill="#263238"/>
<path d="M278.8 217.914C280.974 216.694 283.05 215.308 285.011 213.77C285.06 213.726 285.141 213.77 285.085 213.844C283.196 215.481 281.127 216.898 278.918 218.068C278.788 218.118 278.702 217.97 278.8 217.914Z" fill="#263238"/>
<path d="M271.147 229.75C271.147 229.916 271.449 229.91 271.443 229.75C271.486 225.229 271.443 220.683 271.517 216.138C272.676 213.8 275.162 212.505 276.895 210.637C278.138 209.266 279.22 207.757 280.12 206.14C282.203 202.279 283.476 198.034 283.864 193.664C284.339 188.828 282.501 172.861 280.466 173.416C279.405 173.7 275.982 181.612 275.075 184.221C273.603 188.535 272.526 192.973 271.856 197.481C270.203 208.108 270.351 219.037 271.147 229.75Z" fill="#10B5BF"/>
<path d="M271.116 210.242C271.362 204.518 272.651 198.74 273.854 193.189C275.155 187.206 276.679 181.575 279.756 176.241C279.812 176.142 279.96 176.241 279.904 176.333C277.853 180.482 276.265 184.844 275.168 189.34C275.377 189.013 275.624 188.724 275.84 188.403C275.926 188.286 276.124 188.403 276.037 188.52C275.764 189.004 275.441 189.459 275.075 189.877C275.063 189.881 275.05 189.881 275.038 189.877C273.977 194.151 273.219 198.511 272.571 202.884L272.719 202.718C272.75 202.681 272.806 202.718 272.787 202.767C272.707 202.915 272.614 203.057 272.528 203.205C272.195 205.419 271.911 207.627 271.591 209.816C275.532 206.449 278.893 202.477 280.792 197.58C280.792 197.58 280.842 197.58 280.829 197.58C278.979 202.656 276.037 207.164 271.523 210.248C271.443 210.865 271.362 211.426 271.276 212.012C271.276 212.135 271.066 212.104 271.066 212.012C271.066 211.488 271.066 210.963 271.116 210.445C271.098 210.435 271.083 210.42 271.072 210.402C271.062 210.385 271.057 210.364 271.057 210.344C271.057 210.323 271.062 210.303 271.072 210.285C271.083 210.267 271.098 210.252 271.116 210.242Z" fill="#263238"/>
<path d="M272.972 201.94C275.988 197.444 278.8 193.078 280.99 188.113C280.99 188.057 281.113 188.113 281.088 188.15C279.238 193.084 276.629 198.092 273.114 202.058C273.052 202.138 272.91 202.033 272.972 201.94Z" fill="#263238"/>
<path d="M276.975 187.003C278.208 184.795 279.541 182.642 280.712 180.391C280.749 180.33 280.836 180.391 280.805 180.447C279.845 182.797 278.627 185.033 277.172 187.114C277.086 187.225 276.907 187.126 276.975 187.003Z" fill="#263238"/>
<path d="M276.518 187.959V188.002C276.518 188.002 276.463 187.959 276.518 187.959Z" fill="#263238"/>
<path d="M268.087 216.668C268.027 219.666 267.674 222.651 267.033 225.58C267.076 225.901 267.125 226.197 267.168 226.555C268.096 223.319 268.632 219.983 268.766 216.619C268.794 216.572 268.808 216.519 268.808 216.465C268.808 216.411 268.794 216.357 268.766 216.311C268.9 211.799 268.569 207.285 267.779 202.841C266.379 194.533 263.32 186.553 257.523 180.323C257.475 180.288 257.42 180.263 257.362 180.25C257.304 180.237 257.243 180.236 257.185 180.249C257.126 180.261 257.071 180.285 257.023 180.321C256.975 180.356 256.935 180.401 256.906 180.453C254.568 186.405 255.382 193.503 257.375 199.436C258.459 202.649 260.009 205.685 261.975 208.447C263.937 211.247 266.472 213.609 268.087 216.668Z" fill="#10B5BF"/>
<path d="M258.208 183.105C263.703 192.023 267.527 202.594 267.989 213.128C267.989 213.313 267.687 213.363 267.662 213.171C267.533 212.228 267.385 211.29 267.237 210.359C264.961 208.182 262.63 205.888 261.001 203.162C261.001 203.118 261.045 203.057 261.082 203.106C262.97 205.418 264.992 207.617 267.138 209.693C266.727 207.366 266.256 205.073 265.726 202.816C265.578 202.644 265.436 202.471 265.288 202.304C265.14 202.138 265.356 202.027 265.454 202.144L265.584 202.286C264.812 199.19 263.852 196.144 262.71 193.164C261.316 191.499 259.749 190.08 258.732 188.045C258.728 188.035 258.727 188.025 258.73 188.015C258.734 188.005 258.741 187.996 258.75 187.991C258.759 187.986 258.769 187.984 258.78 187.986C258.79 187.988 258.799 187.994 258.806 188.002C259.626 189.155 260.415 190.309 261.347 191.376C261.717 191.801 262.124 192.196 262.506 192.609C261.243 189.376 259.742 186.24 258.016 183.228C258.012 183.204 258.015 183.18 258.025 183.157C258.034 183.135 258.05 183.116 258.071 183.103C258.091 183.09 258.115 183.083 258.139 183.083C258.164 183.084 258.187 183.091 258.208 183.105Z" fill="#263238"/>
<path d="M259.317 194.108C261.093 196.495 263.116 198.777 264.769 201.25C264.819 201.318 264.714 201.392 264.652 201.336C262.531 199.344 260.736 196.63 259.2 194.176C259.151 194.102 259.249 194.034 259.317 194.108Z" fill="#263238"/>
<path d="M265.016 201.799L265.09 201.879C265.146 201.928 265.09 202.008 265.01 201.959L264.936 201.885C264.88 201.829 264.967 201.749 265.016 201.799Z" fill="#263238"/>
<path d="M249.598 200.251C250.042 204.839 252.453 210.316 255.395 213.85C256.69 215.389 258.293 216.639 260.101 217.519C262.136 218.531 264.27 219.69 266.373 220.517C267.376 223.065 268.12 225.708 268.593 228.405L268.797 227.708C267.446 216.095 259.928 206.165 250.295 199.794C250.22 199.749 250.134 199.726 250.047 199.728C249.96 199.73 249.876 199.756 249.803 199.804C249.73 199.851 249.672 199.919 249.636 199.998C249.6 200.077 249.586 200.164 249.598 200.251Z" fill="#10B5BF"/>
<path d="M252.922 203.68C252.854 203.618 252.922 203.501 253.02 203.556C258.304 207.483 262.515 212.675 265.269 218.654C265.337 218.808 265.121 218.95 265.028 218.79C264.584 218.007 264.128 217.248 263.665 216.496C261.47 216.082 259.391 214.534 257.763 213.067C257.72 213.03 257.763 212.968 257.825 213.005C258.666 213.77 259.6 214.425 260.606 214.954C261.501 215.41 262.457 215.694 263.394 216.058C262.572 214.771 261.723 213.537 260.847 212.357C258.478 211.458 256.256 210.211 254.254 208.657C254.245 208.654 254.238 208.649 254.232 208.642C254.225 208.636 254.221 208.628 254.218 208.62C254.215 208.611 254.214 208.602 254.214 208.593C254.215 208.584 254.218 208.576 254.223 208.568C254.227 208.56 254.233 208.554 254.241 208.548C254.248 208.543 254.257 208.54 254.265 208.538C254.274 208.537 254.283 208.537 254.292 208.54C254.301 208.542 254.309 208.546 254.316 208.552C256.299 209.753 258.345 210.846 260.446 211.827C259.107 210.062 257.665 208.378 256.129 206.782C255.382 206.387 254.624 205.992 253.902 205.548C253.89 205.54 253.881 205.528 253.877 205.514C253.873 205.5 253.874 205.485 253.88 205.472C253.886 205.459 253.897 205.448 253.91 205.442C253.923 205.435 253.938 205.434 253.952 205.437C254.552 205.649 255.125 205.931 255.66 206.276C254.772 205.394 253.878 204.525 252.922 203.68Z" fill="#263238"/>
<path d="M253.125 207.689C253.255 207.768 253.379 207.856 253.495 207.954C253.532 207.954 253.495 208.034 253.446 208.015C253.32 207.943 253.198 207.863 253.082 207.775C252.996 207.775 253.082 207.645 253.125 207.689Z" fill="#263238"/>
<path d="M283.802 253.562H257.455L259.583 229.571L260.051 224.279H281.212L281.674 229.571L283.802 253.562Z" fill="#455A64"/>
<path d="M281.674 229.571H259.583L260.051 224.279H281.212L281.674 229.571Z" fill="#263238"/>
<path d="M282.47 220.579H258.793V225.815H282.47V220.579Z" fill="#455A64"/>
<path d="M232.07 61.3203C232.178 62.5936 231.907 63.8705 231.29 64.9897C230.673 66.1088 229.738 67.02 228.604 67.6081C227.469 68.1961 226.186 68.4347 224.916 68.2936C223.646 68.1525 222.446 67.6381 221.468 66.8153C220.49 65.9926 219.778 64.8984 219.422 63.6712C219.066 62.4439 219.082 61.1386 219.467 59.9202C219.852 58.7018 220.59 57.625 221.588 56.8259C222.585 56.0267 223.796 55.5411 225.07 55.4304C225.916 55.3568 226.769 55.4508 227.579 55.7071C228.389 55.9634 229.141 56.3768 229.791 56.9239C230.441 57.471 230.977 58.1409 231.368 58.8952C231.759 59.6496 231.997 60.4737 232.07 61.3203Z" fill="white"/>
<path d="M232.07 61.3203C232.625 67.0684 225.785 70.7072 221.295 67.0252C220.615 66.4595 220.053 65.7644 219.643 64.9802C219.233 64.196 218.983 63.3383 218.907 62.4567C218.83 61.5751 218.93 60.6872 219.199 59.8442C219.468 59.0012 219.902 58.2201 220.475 57.5458C224.262 53.1423 231.632 55.5537 232.07 61.3203ZM232.07 61.3203C231.57 55.6894 224.416 53.5061 220.882 57.885C219.853 59.1559 219.356 60.7758 219.495 62.405C219.634 64.0342 220.399 65.5463 221.628 66.6244C225.859 70.3248 232.538 66.9451 232.063 61.3203H232.07Z" fill="#263238"/>
<path d="M214.937 68.0306C214.997 68.739 214.847 69.4496 214.504 70.0725C214.161 70.6953 213.641 71.2025 213.01 71.5299C212.378 71.8572 211.664 71.9901 210.957 71.9116C210.251 71.8332 209.583 71.5469 209.039 71.0891C208.495 70.6312 208.099 70.0224 207.901 69.3394C207.703 68.6565 207.712 67.9302 207.926 67.2523C208.141 66.5744 208.552 65.9754 209.107 65.531C209.662 65.0866 210.337 64.8168 211.045 64.7556C211.995 64.6753 212.938 64.9749 213.668 65.5888C214.397 66.2026 214.854 67.0807 214.937 68.0306Z" fill="white"/>
<path d="M214.936 68.0305C214.987 68.6503 214.884 69.2729 214.634 69.8427C214.385 70.4124 213.999 70.9114 213.509 71.2948C213.02 71.6783 212.443 71.9342 211.83 72.0397C211.217 72.1451 210.588 72.0968 209.998 71.899C209.409 71.7012 208.878 71.3601 208.452 70.9064C208.027 70.4527 207.721 69.9005 207.562 69.2994C207.403 68.6983 207.396 68.0671 207.541 67.4624C207.685 66.8577 207.978 66.2985 208.393 65.8349C208.884 65.2934 209.521 64.9063 210.228 64.7208C210.935 64.5353 211.681 64.5594 212.374 64.7901C213.068 65.0208 213.679 65.4483 214.134 66.0203C214.589 66.5924 214.868 67.2844 214.936 68.012V68.0305ZM214.936 68.0305C214.394 63.4851 207.819 64.0895 208.078 68.6473C208.602 73.1619 215.183 72.6253 214.936 68.0305Z" fill="#263238"/>
<path d="M288.533 33.5975C288.931 36.8819 288.459 40.2132 287.165 43.2578C285.87 46.3025 283.799 48.9537 281.158 50.946C278.516 52.9383 275.398 54.2018 272.115 54.61C268.832 55.0182 265.499 54.5567 262.45 53.2718C260.968 55.2078 259.059 56.7755 256.872 57.8527C254.684 58.9299 252.278 59.4875 249.84 59.4822C247.401 59.4768 244.997 58.9086 242.815 57.8217C240.632 56.7349 238.73 55.1588 237.256 53.2162C236.566 53.4274 235.858 53.576 235.141 53.6603C232.676 53.9605 230.176 53.5397 227.945 52.4488C225.714 51.3579 223.847 49.6438 222.57 47.5138C221.293 45.3839 220.661 42.9294 220.749 40.4475C220.838 37.9656 221.645 35.5628 223.071 33.5297C220.283 29.9906 218.853 25.5712 219.038 21.0696C219.223 16.5681 221.013 12.2813 224.083 8.98365C227.152 5.68597 231.3 3.59486 235.777 3.08805C240.254 2.58124 244.764 3.69216 248.493 6.22011C250.241 4.03563 252.535 2.3529 255.144 1.34306C257.753 0.333229 260.582 0.0323193 263.345 0.470945C266.108 0.909572 268.705 2.07208 270.873 3.84024C273.04 5.60839 274.701 7.9191 275.686 10.5373C276.344 10.3131 277.024 10.158 277.715 10.0748C279.816 9.81774 281.945 10.2102 283.816 11.1994C285.687 12.1885 287.21 13.7269 288.181 15.6077C289.151 17.4885 289.523 19.6213 289.245 21.7195C288.967 23.8176 288.054 25.7804 286.627 27.3437C287.628 29.2987 288.274 31.4163 288.533 33.5975Z" fill="white"/>
<path d="M288.533 33.5975C288.932 36.8896 288.461 40.2289 287.167 43.282C285.872 46.3352 283.8 48.9953 281.156 50.997C278.512 52.9987 275.389 54.2719 272.099 54.6895C268.809 55.107 265.468 54.6543 262.407 53.3766L262.537 53.3396C261.045 55.2969 259.121 56.8833 256.915 57.9753C254.709 59.0673 252.281 59.6354 249.82 59.6354C247.358 59.6354 244.93 59.0673 242.724 57.9753C240.519 56.8833 238.595 55.2969 237.102 53.3396L237.312 53.4075C236.349 53.7038 235.352 53.8758 234.345 53.9194C223.478 54.5916 216.614 42.2937 222.862 33.3693V33.7024C213.549 22.0274 220.931 4.49324 235.758 2.86502C240.284 2.35896 244.842 3.49244 248.605 6.05978L248.352 6.10295C256.055 -3.51214 271.467 -1.03899 275.778 10.5004L275.661 10.4448C276.475 10.1659 277.324 10.0019 278.184 9.95762C280.262 9.80335 282.339 10.2764 284.146 11.3156C285.952 12.3548 287.405 13.9123 288.317 15.7864C289.228 17.6606 289.556 19.7652 289.258 21.8279C288.96 23.8906 288.05 25.8164 286.646 27.3561C287.653 29.3032 288.295 31.4188 288.539 33.5975H288.533ZM288.533 33.5975C288.267 31.4133 287.616 29.2937 286.609 27.3376C288.129 25.641 289.045 23.4889 289.213 21.2171C289.381 18.9453 288.792 16.6817 287.538 14.7798C286.285 12.8779 284.436 11.4447 282.282 10.704C280.128 9.96324 277.789 9.95671 275.63 10.6854C271.393 -0.681273 256.191 -3.1606 248.635 6.36815L248.531 6.50383L248.383 6.40515C244.695 3.89987 240.229 2.80527 235.801 3.32142C221.394 4.98663 214.357 21.978 223.293 33.3632L223.423 33.5297L223.306 33.6962C217.262 42.2628 223.848 54.1229 234.321 53.5246C235.343 53.4825 236.355 53.3062 237.33 53.0004C238.777 54.9481 240.655 56.5338 242.818 57.6329C244.981 58.732 247.369 59.3146 249.795 59.3349C252.221 59.3553 254.619 58.8127 256.8 57.75C258.981 56.6873 260.885 55.1333 262.364 53.2101L262.42 53.1423L262.494 53.1793C265.532 54.4599 268.852 54.9212 272.125 54.5172C275.397 54.1131 278.505 52.8579 281.141 50.8768C283.776 48.8957 285.845 46.258 287.142 43.227C288.44 40.1961 288.919 36.8779 288.533 33.6037V33.5975Z" fill="#263238"/>
<path d="M256.32 32.5614L256.166 35.1703C256.159 35.4302 256.098 35.6859 255.989 35.9216C255.879 36.1574 255.722 36.3684 255.528 36.5416C255.334 36.7147 255.107 36.8465 254.86 36.9289C254.614 37.0112 254.353 37.0424 254.094 37.0205C253.574 36.9903 253.087 36.7552 252.74 36.3667C252.394 35.9783 252.215 35.4682 252.244 34.9482L252.478 30.779C252.478 30.7359 252.521 30.742 252.527 30.6988C252.533 30.6557 252.466 30.6803 252.466 30.6187C252.508 30.1034 252.747 29.6242 253.132 29.2798C253.518 28.9355 254.021 28.7525 254.538 28.7684C255.139 28.8209 255.744 28.7521 256.317 28.5662C256.891 28.3804 257.421 28.0812 257.877 27.6865C258.333 27.2918 258.704 26.8095 258.97 26.2684C259.236 25.7272 259.391 25.1382 259.425 24.5362C259.458 23.9342 259.371 23.3316 259.168 22.764C258.964 22.1964 258.649 21.6755 258.24 21.2322C257.832 20.7888 257.338 20.432 256.789 20.183C256.24 19.9339 255.646 19.7977 255.044 19.7824C254.265 19.7364 253.488 19.8962 252.791 20.2459C252.093 20.5957 251.501 21.1229 251.072 21.7745C250.936 22.0043 250.755 22.2043 250.54 22.3622C250.325 22.5202 250.08 22.6329 249.82 22.6935C249.561 22.7542 249.291 22.7614 249.028 22.715C248.766 22.6685 248.515 22.5692 248.292 22.4231C248.068 22.277 247.877 22.0871 247.729 21.865C247.581 21.6428 247.48 21.393 247.431 21.1306C247.383 20.8682 247.388 20.5987 247.447 20.3383C247.505 20.078 247.616 19.8322 247.772 19.6159C248.54 18.4468 249.587 17.4869 250.818 16.8225C252.05 16.1581 253.426 15.81 254.825 15.8095C256.224 15.8091 257.602 16.1562 258.833 16.8198C260.065 17.4834 261.112 18.4426 261.881 19.6113C262.65 20.7799 263.117 22.1213 263.239 23.5149C263.361 24.9086 263.136 26.3107 262.582 27.5954C262.028 28.8801 261.163 30.007 260.066 30.8749C258.969 31.7428 257.673 32.3245 256.296 32.5676L256.32 32.5614ZM255.827 41.3439L255.784 42.0655C255.775 42.3251 255.714 42.5804 255.604 42.8158C255.494 43.0511 255.338 43.2617 255.144 43.4347C254.95 43.6077 254.723 43.7396 254.477 43.8223C254.231 43.905 253.97 43.9368 253.711 43.9157C253.192 43.8824 252.706 43.6455 252.36 43.2564C252.013 42.8674 251.834 42.3575 251.861 41.8373L251.904 41.1157C251.941 40.5982 252.178 40.1153 252.565 39.7698C252.952 39.4242 253.458 39.2433 253.977 39.2655C254.236 39.2772 254.49 39.3406 254.724 39.4521C254.958 39.5635 255.168 39.7208 255.34 39.9145C255.513 40.1082 255.644 40.3345 255.728 40.58C255.812 40.8255 255.845 41.0852 255.827 41.3439Z" fill="#0094DE"/>
</g>
<defs>
<filter id="filter0_d_91_2385" x="0" y="0.161133" width="361" height="356.839" filterUnits="userSpaceOnUse" color-interpolation-filters="sRGB">
<feFlood flood-opacity="0" result="BackgroundImageFix"/>
<feColorMatrix in="SourceAlpha" type="matrix" values="0 0 0 0 0 0 0 0 0 0 0 0 0 0 0 0 0 0 127 0" result="hardAlpha"/>
<feOffset dy="4"/>
<feGaussianBlur stdDeviation="2"/>
<feComposite in2="hardAlpha" operator="out"/>
<feColorMatrix type="matrix" values="0 0 0 0 0 0 0 0 0 0 0 0 0 0 0 0 0 0 0.25 0"/>
<feBlend mode="normal" in2="BackgroundImageFix" result="effect1_dropShadow_91_2385"/>
<feBlend mode="normal" in="SourceGraphic" in2="effect1_dropShadow_91_2385" result="shape"/>
</filter>
<linearGradient id="paint0_linear_91_2385" x1="180.5" y1="238" x2="180.5" y2="349" gradientUnits="userSpaceOnUse">
<stop stop-color="#A8D5FF"/>
<stop offset="0.505208" stop-color="white" stop-opacity="0"/>
</linearGradient>
</defs>
</svg>
