<svg width="50" height="50" viewBox="0 0 50 50" fill="none" xmlns="http://www.w3.org/2000/svg">
<circle cx="25" cy="25" r="25" fill="#E14F99"/>
<path d="M34.3462 15.6689C31.9875 13.3063 28.8488 12.0035 25.4991 12.0003C18.6131 12.0003 13.0059 17.6016 13 24.4874C12.9968 27.8266 14.2942 30.9668 16.6524 33.3303C19.0115 35.6923 22.1379 36.9997 25.4768 36.9997H25.5058V36.9985C32.3423 36.9985 37.9949 31.3959 38 24.5105C38.0032 21.1716 36.704 18.0318 34.3462 15.6689ZM26.0545 31.1044C25.9108 31.2494 25.71 31.3325 25.5038 31.3325C25.2967 31.3321 25.0953 31.2486 24.95 31.1015C24.8057 30.9585 24.7228 30.7574 24.723 30.5506C24.7234 30.3443 24.8073 30.1421 24.9526 29.9972C25.0973 29.8529 25.3104 29.7698 25.5058 29.7698C25.7115 29.7698 25.9125 29.8533 26.0559 29.998C26.2026 30.1459 26.2867 30.3483 26.2863 30.5518C26.2861 30.756 26.2016 30.9572 26.0545 31.1044ZM26.4306 26.3196C26.3414 26.3393 26.2776 26.4183 26.2774 26.5097L26.2764 27.4276C26.276 27.8576 25.926 28.2081 25.4944 28.2081C25.0632 28.2077 24.7137 27.8566 24.7141 27.4262L24.7159 25.655C24.7163 25.2252 25.0663 24.8911 25.4969 24.8911H25.5003C26.9941 24.8911 28.2105 23.6591 28.2121 22.1653C28.2127 21.4415 27.9317 20.7527 27.4198 20.2391C26.9062 19.7258 26.2259 19.4393 25.5007 19.4385C24.0067 19.4385 22.7899 20.652 22.7883 22.1468C22.7879 22.577 22.4375 22.926 22.0061 22.926C21.7974 22.926 21.6011 22.8437 21.454 22.6958C21.3063 22.5483 21.2256 22.3519 21.2258 22.1434C21.228 19.7882 23.1455 17.8717 25.5038 17.8717C27.861 17.8742 29.7764 19.7935 29.7742 22.1503C29.7726 24.1347 28.3669 25.8882 26.4306 26.3196Z" fill="white"/>
</svg>
