<svg width="50" height="50" viewBox="0 0 50 50" fill="none" xmlns="http://www.w3.org/2000/svg">
<circle cx="25" cy="25" r="25" fill="#E87C68"/>
<path d="M17.0009 26.6719H30.5778C31.225 26.6719 31.7496 26.1472 31.7496 25.5C31.7496 24.8528 31.225 24.3281 30.5778 24.3281H17.0009L18.5161 22.813C18.9737 22.3553 18.9737 21.6134 18.5161 21.1557C18.0585 20.6981 17.3165 20.6981 16.8588 21.1557L13.3434 24.6713C13.3159 24.6987 13.29 24.7274 13.2655 24.7574C13.2548 24.7705 13.2455 24.7843 13.2354 24.7977C13.2225 24.8149 13.2092 24.8317 13.1973 24.8495C13.1863 24.8659 13.1769 24.8828 13.1669 24.8995C13.1573 24.9156 13.1472 24.9313 13.1384 24.9479C13.1291 24.9651 13.1214 24.9827 13.1131 25.0002C13.105 25.0174 13.0965 25.0342 13.0892 25.0517C13.0822 25.0688 13.0764 25.0863 13.0702 25.1036C13.0634 25.1224 13.0562 25.1409 13.0505 25.16C13.0452 25.1774 13.0414 25.1949 13.037 25.2125C13.0321 25.232 13.0266 25.2513 13.0227 25.2712C13.0187 25.2914 13.0163 25.3119 13.0134 25.3323C13.0109 25.3497 13.0076 25.3669 13.0059 25.3845C13.0021 25.4224 13.0002 25.4604 13.0001 25.4984C13.0001 25.4989 13 25.4995 13 25.5001C13 25.5006 13.0001 25.5013 13.0001 25.5018C13.0002 25.5399 13.0021 25.5778 13.0059 25.6157C13.0076 25.6331 13.0109 25.6501 13.0133 25.6674C13.0162 25.688 13.0187 25.7086 13.0227 25.7291C13.0266 25.7488 13.032 25.7678 13.037 25.7871C13.0414 25.8049 13.0453 25.8227 13.0506 25.8403C13.0563 25.8591 13.0634 25.8774 13.07 25.8958C13.0763 25.9134 13.0821 25.9312 13.0893 25.9485C13.0964 25.9657 13.1048 25.9822 13.1127 25.999C13.1212 26.0169 13.1291 26.0349 13.1385 26.0525C13.1471 26.0685 13.1569 26.0838 13.1662 26.0993C13.1764 26.1166 13.1862 26.134 13.1974 26.1508C13.2088 26.1679 13.2216 26.1839 13.2338 26.2004C13.2445 26.2145 13.2543 26.2291 13.2656 26.2429C13.289 26.2713 13.3137 26.2986 13.3396 26.3248C13.3409 26.326 13.3419 26.3274 13.3431 26.3287L16.8587 29.8444C17.0876 30.0732 17.3875 30.1876 17.6874 30.1876C17.9872 30.1876 18.2872 30.0732 18.516 29.8444C18.9736 29.3868 18.9736 28.6448 18.5161 28.1872L17.0009 26.6719Z" fill="white"/>
<path d="M36.828 14.9531H21.9844C21.3372 14.9531 20.8125 15.4778 20.8125 16.125V20.8125C20.8125 21.4596 21.3372 21.9843 21.9844 21.9843C22.6316 21.9843 23.1562 21.4596 23.1562 20.8125V17.2969H35.6562V33.7031H23.1562V30.1874C23.1562 29.5402 22.6316 29.0155 21.9844 29.0155C21.3372 29.0155 20.8125 29.5402 20.8125 30.1874V34.875C20.8125 35.5221 21.3372 36.0468 21.9844 36.0468H36.828C37.4752 36.0468 37.9999 35.5221 37.9999 34.875V16.125C37.9999 15.4778 37.4752 14.9531 36.828 14.9531Z" fill="white"/>
</svg>
