<svg width="50" height="50" viewBox="0 0 50 50" fill="none" xmlns="http://www.w3.org/2000/svg">
<circle cx="25" cy="25" r="25" fill="#E59350"/>
<path d="M20.5957 28.4227V26.4521C20.5957 24.3257 22.3257 22.5957 24.4521 22.5957C26.5786 22.5957 28.3085 24.3257 28.3085 26.4521V28.4227C28.3172 28.4263 28.326 28.4297 28.3347 28.4334C28.8851 28.6661 29.409 28.946 29.9043 29.2697V26.4521C29.9043 23.4458 27.4585 21 24.4521 21C21.4458 21 19 23.4458 19 26.4521V29.2697C19.4953 28.946 20.0192 28.6661 20.5695 28.4333C20.5782 28.4297 20.587 28.4263 20.5957 28.4227Z" fill="white"/>
<path d="M21.7329 35.0163C21.7329 35.0229 21.7324 35.0293 21.7324 35.0359C21.7324 36.6729 23.0595 38 24.6966 38C26.3336 38 27.6607 36.6729 27.6607 35.0359C27.6607 35.0293 27.6602 35.0229 27.6602 35.0163H21.7329Z" fill="white"/>
<path d="M34.1612 31.3112L31.4935 27.3924C31.4935 26.1927 31.4935 23.2615 31.4935 22.5032C31.4935 19.206 29.1453 16.4576 26.0301 15.8382V14.3326C26.03 13.5967 25.4334 13 24.6974 13C23.9614 13 23.3648 13.5967 23.3648 14.3326V15.8382C20.2495 16.4577 17.9014 19.2061 17.9014 22.5033C17.9014 23.7941 17.9014 26.6443 17.9014 27.3924L15.2336 31.3112C14.9526 31.724 14.9229 32.2583 15.1564 32.6997C15.3899 33.1411 15.8483 33.4172 16.3476 33.4172H33.0471C33.5465 33.4172 34.0049 33.1411 34.2384 32.6997C34.4719 32.2583 34.4422 31.724 34.1612 31.3112Z" fill="white"/>
</svg>
