<svg width="50" height="50" viewBox="0 0 50 50" fill="none" xmlns="http://www.w3.org/2000/svg">
<circle cx="25" cy="25" r="25" fill="#3350D8"/>
<path d="M21.5215 19.4227V17.4521C21.5215 15.3257 23.2515 13.5957 25.3779 13.5957C27.5043 13.5957 29.2343 15.3257 29.2343 17.4521V19.4227C29.243 19.4263 29.2518 19.4297 29.2605 19.4334C29.8109 19.6661 30.3348 19.946 30.83 20.2697V17.4521C30.83 14.4458 28.3842 12 25.3779 12C22.3716 12 19.9258 14.4458 19.9258 17.4521V20.2697C20.421 19.946 20.945 19.6661 21.4953 19.4333C21.504 19.4297 21.5128 19.4263 21.5215 19.4227Z" fill="white"/>
<path d="M25.3777 20.2447C20.7508 20.2447 17 23.9955 17 28.6223C17 33.2492 20.7508 37 25.3777 37C30.0045 37 33.7553 33.2492 33.7553 28.6223C33.7553 23.9955 30.0045 20.2447 25.3777 20.2447ZM26.1755 29.051V31.8997H24.5798V29.051C23.9509 28.7521 23.516 28.1113 23.516 27.3687C23.516 26.3405 24.3495 25.507 25.3777 25.507C26.4059 25.507 27.2394 26.3405 27.2394 27.3687C27.2394 28.1113 26.8045 28.7522 26.1755 29.051Z" fill="white"/>
</svg>
