<svg width="50" height="50" viewBox="0 0 50 50" fill="none" xmlns="http://www.w3.org/2000/svg">
<circle cx="25" cy="25" r="25" fill="#9351D7"/>
<path d="M32.0428 20.9191C31.9966 20.9191 31.9226 20.9218 31.8755 20.9274C31.2722 20.9975 30.8029 21.5331 30.8029 22.1404V25.8956C30.8029 26.1979 30.6455 26.4726 30.3432 26.4726H30.3333C30.0062 26.4726 29.6514 26.1778 29.6514 25.8507V19.7934C29.6514 19.186 29.2542 18.6505 28.6508 18.5803C28.6037 18.5748 28.524 18.5721 28.4779 18.5721C27.8259 18.572 27.2597 19.1055 27.2597 19.7575V25.8724C27.2597 26.1876 27.0475 26.443 26.7324 26.443C26.4126 26.443 26.1966 26.1837 26.1966 25.8639V18.0864C26.1966 17.479 25.7666 16.9435 25.1631 16.8733C25.116 16.8677 25.0527 16.8651 25.0066 16.8651C24.3546 16.865 23.8047 17.3985 23.8047 18.0504V25.8646C23.8047 26.1841 23.5448 26.443 23.2254 26.443C22.9098 26.443 22.6531 26.1872 22.6531 25.8717V19.7934C22.6531 19.186 22.2345 18.6505 21.631 18.5803C21.5839 18.5748 21.5149 18.5721 21.4688 18.5721C20.8168 18.572 20.2613 19.1055 20.2613 19.7575V28.581C20.2613 28.9083 20.0271 29.127 19.7465 29.127C19.6174 29.127 19.5024 29.0807 19.3929 28.9772L17.995 27.6494C17.7668 27.4212 17.4703 27.3071 17.1694 27.3071C16.8686 27.3071 16.57 27.4212 16.3418 27.6494C15.8854 28.1057 15.8864 28.8526 16.3428 29.309L21.3397 35.8988C21.3402 35.8996 21.3408 35.9004 21.3409 35.9012L21.466 37.5466C21.4856 37.8063 21.7021 37.9887 21.9623 37.9887C21.9625 37.9887 21.9627 37.9887 21.963 37.9887L30.6843 38C30.9338 37.9997 31.1445 37.8237 31.1771 37.5763L31.4047 35.8473C31.4143 35.7731 31.4079 35.7049 31.4483 35.6419C32.7786 33.5698 33.1948 30.1484 33.1948 26.4431V22.1046C33.1947 21.4526 32.6947 20.9191 32.0428 20.9191Z" fill="white"/>
<path d="M19.1863 18.7587C19.2628 18.7587 19.3406 18.742 19.4143 18.707C19.6793 18.5809 19.792 18.2638 19.6659 17.9987C19.5432 17.7409 19.481 17.4748 19.481 17.2078C19.481 15.5032 22.019 14.063 25.0232 14.063C28.0274 14.063 30.5654 15.5032 30.5654 17.2078C30.5654 17.4747 30.5032 17.7408 30.3805 17.9986C30.2543 18.2637 30.367 18.5808 30.6321 18.7069C30.8969 18.8328 31.2143 18.7205 31.3404 18.4554C31.5315 18.0537 31.6284 17.634 31.6284 17.2078C31.6284 14.8482 28.727 13 25.0232 13C21.3193 13 18.418 14.8482 18.418 17.2078C18.418 17.6341 18.5149 18.0538 18.706 18.4555C18.797 18.6468 18.9876 18.7587 19.1863 18.7587Z" fill="white"/>
</svg>
