<svg width="50" height="50" viewBox="0 0 50 50" fill="none" xmlns="http://www.w3.org/2000/svg">
<circle cx="25" cy="25" r="25" fill="#55C0E7"/>
<path d="M25.5 12C18.6077 12 13 17.6072 13 24.5C13 31.3928 18.6077 37 25.5 37C32.3923 37 38 31.3928 38 24.5C38 17.6072 32.3923 12 25.5 12ZM31.5096 25.4615H26.4615V30.75C26.4615 31.2808 26.0308 31.7115 25.5 31.7115C24.9692 31.7115 24.5385 31.2808 24.5385 30.75V25.4615H19.4904C18.9596 25.4615 18.5288 25.0308 18.5288 24.5C18.5288 23.9692 18.9596 23.5385 19.4904 23.5385H24.5385V18.7308C24.5385 18.2 24.9692 17.7692 25.5 17.7692C26.0308 17.7692 26.4615 18.2 26.4615 18.7308V23.5385H31.5096C32.0404 23.5385 32.4712 23.9692 32.4712 24.5C32.4712 25.0308 32.0404 25.4615 31.5096 25.4615Z" fill="white"/>
</svg>
