<svg width="50" height="50" viewBox="0 0 50 50" fill="none" xmlns="http://www.w3.org/2000/svg">
<circle cx="25" cy="25" r="25" fill="#07AA7B"/>
<path d="M36.043 13.672C36.043 13.3008 35.772 13 35.4008 13H14.7019C14.3306 13 14 13.3008 14 13.672V37.328C14 37.6992 14.3306 38 14.7019 38H26.5745C26.7539 38 26.9258 37.9282 27.0521 37.8007L31.449 33.3592L35.876 28.9323C36.0064 28.8018 36.0581 28.6267 36.0561 28.4492C36.0568 28.4369 36.043 28.4246 36.043 28.4122V13.672ZM33.7783 29.129L27.172 35.7056V29.129H33.7783ZM19.8766 16.5842H30.2261C30.6343 16.5842 30.9653 16.9376 30.9653 17.3459C30.9653 17.7541 30.6343 18.1075 30.2261 18.1075H19.8766C19.4684 18.1075 19.1374 17.7541 19.1374 17.3459C19.1374 16.9376 19.4683 16.5842 19.8766 16.5842ZM19.8766 20.2581H30.2261C30.6343 20.2581 30.9653 20.6115 30.9653 21.0197C30.9653 21.428 30.6343 21.7814 30.2261 21.7814H19.8766C19.4684 21.7814 19.1374 21.428 19.1374 21.0197C19.1374 20.6115 19.4683 20.2581 19.8766 20.2581ZM19.1374 24.7384C19.1374 24.3301 19.4684 24.0215 19.8766 24.0215H30.2261C30.6343 24.0215 30.9653 24.3301 30.9653 24.7384C30.9653 25.1466 30.6343 25.4552 30.2261 25.4552H19.8766C19.4683 25.4552 19.1374 25.1466 19.1374 24.7384Z" fill="white"/>
</svg>
