<svg width="50" height="60" viewBox="0 0 50 60" fill="none" xmlns="http://www.w3.org/2000/svg">
<path d="M40.1375 0H9.48342C4.25119 0 0 4.2654 0 9.49763V40.1517C0 45.3839 4.25119 49.6493 9.49764 49.6493H24.8247H26.1612V38.9147C33.583 38.2322 39.4266 31.9763 39.4266 24.3839V22.3934H36.7536V24.3839C36.7536 30.9526 31.4076 36.3128 24.8247 36.3128C18.2417 36.3128 12.8957 30.9668 12.8957 24.3839V22.3934H10.2228V24.3839C10.2228 31.9905 16.0664 38.2464 23.4882 38.9147V46.9763H9.48342C5.72986 46.9763 2.67299 43.9194 2.67299 40.1517V9.49763C2.67299 5.74408 5.72986 2.6872 9.48342 2.6872H40.1375C43.891 2.6872 46.9479 5.74408 46.9479 9.49763V40.1517C46.9479 43.9052 43.891 46.9763 40.1375 46.9763H33.6398V54.7109L27.0995 49.8768L27.1706 53.2464L36.3128 60V49.6351H40.1375C45.3697 49.6351 49.6351 45.3697 49.6351 40.1374V9.49763C49.6351 4.2654 45.3697 0 40.1375 0Z" fill="white"/>
<path d="M39.4122 19.3506C39.4122 15.8814 36.9668 12.9809 33.7108 12.2558C33.2701 11.3458 32.3459 10.7202 31.2795 10.7202C29.7867 10.7202 28.5781 11.9287 28.5781 13.4216C28.5781 14.9145 29.7867 16.1231 31.2795 16.1231C32.2037 16.1231 33.0141 15.6681 33.4976 14.9572C35.3743 15.5259 36.7393 17.2747 36.7393 19.3363V19.9477H39.4122V19.3506Z" fill="white"/>
<path d="M21.0568 13.4216C21.0568 11.9287 19.8482 10.7202 18.3554 10.7202C17.2748 10.7202 16.3506 11.3458 15.9241 12.2558C12.6682 12.9667 10.2227 15.8813 10.2227 19.3505V19.9619H12.8956V19.3505C12.8956 17.2889 14.2606 15.5401 16.1373 14.9714C16.6208 15.6681 17.4312 16.1373 18.3554 16.1373C19.8482 16.1231 21.0568 14.9145 21.0568 13.4216Z" fill="white"/>
<path d="M18.3268 19.6494C17.0188 23.403 18.4121 26.3888 20.488 28.3793C20.5448 27.4551 20.6728 26.5878 20.9145 25.82C20.9998 25.5641 21.0851 25.3082 21.1989 25.0665L20.9145 24.7679C20.5164 24.3414 20.1752 23.8864 19.905 23.3745C19.7771 23.1186 19.6633 22.8485 19.5922 22.5641C19.5211 22.294 19.4643 21.9954 19.4927 21.7252C19.5496 21.9954 19.6633 22.2513 19.7913 22.493C19.8482 22.6068 19.9335 22.7205 19.9903 22.8485C20.0614 22.9622 20.1467 23.076 20.2178 23.1755C20.5448 23.602 20.9287 23.9859 21.3268 24.3414L21.4832 24.4835C22.0519 23.4883 22.8766 22.7205 23.9714 22.1518C19.1941 20.9575 18.3268 19.6494 18.3268 19.6494Z" fill="white"/>
<path d="M32.29 19.6494C32.29 19.6494 31.38 21.0286 26.2473 22.2371C20.8587 23.5025 21.1004 27.5262 21.399 33.6399C21.399 33.6399 21.4843 31.4788 24.598 31.2371C27.7402 30.9812 34.7497 26.6305 32.29 19.6494ZM31.0388 22.5499C30.9677 22.8342 30.854 23.0902 30.726 23.3603C30.4559 23.8722 30.1146 24.3414 29.7165 24.7537L29.418 25.0665L29.0909 25.3508C28.8777 25.5499 28.6502 25.7205 28.4227 25.8911C27.9677 26.2324 27.4843 26.5309 26.9867 26.8153C26.489 27.0997 26.0341 27.3414 25.5649 27.6399C25.3374 27.7821 25.1099 27.9385 24.8966 28.0949C24.6834 28.2655 24.4701 28.4219 24.2568 28.5925C23.4322 29.2892 22.6644 30.0712 22.1241 31.0523C22.2236 30.4978 22.4796 29.9717 22.7639 29.4883C23.0625 29.0049 23.4322 28.5499 23.8303 28.1518C24.2284 27.7252 24.6834 27.384 25.1383 27.0428C25.38 26.8864 25.6075 26.7158 25.8635 26.5736L26.5886 26.147C27.072 25.8911 27.527 25.6068 27.9819 25.3082C28.2094 25.1518 28.4369 25.0096 28.636 24.839L28.963 24.5973L29.2758 24.3414C29.6739 23.9859 30.072 23.602 30.3848 23.1755C30.4701 23.0617 30.5412 22.9622 30.6123 22.8485C30.6834 22.7347 30.7544 22.621 30.8113 22.493C30.9393 22.2513 31.053 21.9954 31.1099 21.7252C31.1668 21.9954 31.1241 22.2797 31.0388 22.5499Z" fill="white"/>
</svg>
